<svg width="48" height="48" viewBox="0 0 48 48" fill="none" xmlns="http://www.w3.org/2000/svg">
<path fill-rule="evenodd" clip-rule="evenodd" d="M36.8558 8.67967C28.3943 1.57963 15.7792 2.68331 8.67918 11.1448C1.57914 19.6063 2.68282 32.2214 11.1443 39.3214C19.6058 46.4215 32.2209 45.3178 39.321 36.8563C46.421 28.3948 45.3173 15.7797 36.8558 8.67967ZM39.427 5.61549C29.2732 -2.90455 14.135 -1.58014 5.615 8.57366C-2.90504 18.7274 -1.58062 33.8656 8.57317 42.3856C18.727 50.9057 33.8651 49.5813 42.3851 39.4275C50.9052 29.2737 49.5808 14.1355 39.427 5.61549ZM27.6735 29.4794C28.7739 29.3831 29.744 30.1971 29.8402 31.2975C29.9365 32.3979 29.1225 33.3679 28.0222 33.4642L17.1037 34.4194C16.0034 34.5157 15.0333 33.7017 14.937 32.6014L13.9818 21.6829C13.8855 20.5825 14.6995 19.6125 15.7999 19.5162C16.9002 19.4199 17.8703 20.2339 17.9666 21.3343L18.501 27.4427L29.5386 14.2885C30.2486 13.4423 31.5102 13.332 32.3563 14.042C33.2025 14.752 33.3128 16.0135 32.6028 16.8596L21.5651 30.0138L27.6735 29.4794Z" fill="black"/>
</svg>
