<svg width="48" height="48" viewBox="0 0 48 48" fill="none" xmlns="http://www.w3.org/2000/svg">
<path fill-rule="evenodd" clip-rule="evenodd" d="M44 24C44 35.0457 35.0457 44 24 44C12.9543 44 4 35.0457 4 24C4 12.9543 12.9543 4 24 4C35.0457 4 44 12.9543 44 24ZM48 24C48 37.2548 37.2548 48 24 48C10.7452 48 0 37.2548 0 24C0 10.7452 10.7452 0 24 0C37.2548 0 48 10.7452 48 24ZM22.1642 17.6642C22.9453 16.8832 22.9453 15.6168 22.1642 14.8358C21.3832 14.0547 20.1168 14.0547 19.3358 14.8358L11.5858 22.5858C10.8047 23.3668 10.8047 24.6332 11.5858 25.4142L19.3358 33.1642C20.1168 33.9453 21.3832 33.9453 22.1642 33.1642C22.9453 32.3832 22.9453 31.1168 22.1642 30.3358L17.8284 26H35C36.1046 26 37 25.1046 37 24C37 22.8954 36.1046 22 35 22H17.8284L22.1642 17.6642Z" fill="black"/>
</svg>
