<svg width="48" height="48" viewBox="0 0 48 48" fill="none" xmlns="http://www.w3.org/2000/svg">
<path fill-rule="evenodd" clip-rule="evenodd" d="M4 24C4 35.0457 12.9543 44 24 44C35.0457 44 44 35.0457 44 24C44 12.9543 35.0457 4 24 4C12.9543 4 4 12.9543 4 24ZM0 24C0 37.2548 10.7452 48 24 48C37.2548 48 48 37.2548 48 24C48 10.7452 37.2548 0 24 0C10.7452 0 0 10.7452 0 24ZM25.8358 17.6642C25.0547 16.8832 25.0547 15.6168 25.8358 14.8358C26.6168 14.0547 27.8832 14.0547 28.6642 14.8358L36.4142 22.5858C37.1953 23.3668 37.1953 24.6332 36.4142 25.4142L28.6642 33.1642C27.8832 33.9453 26.6168 33.9453 25.8358 33.1642C25.0547 32.3832 25.0547 31.1168 25.8358 30.3358L30.1716 26H13C11.8954 26 11 25.1046 11 24C11 22.8954 11.8954 22 13 22H30.1716L25.8358 17.6642Z" fill="black"/>
</svg>
