<svg width="130" height="130" viewBox="0 0 130 130" fill="none" xmlns="http://www.w3.org/2000/svg">
<g opacity="0.5" clip-path="url(#clip0_175_8111)">
<rect width="12.8571" height="19.6" transform="matrix(1 0 -0.221378 0.975188 -1.83057 0.243164)" fill="#FF4242"/>
<rect width="12.8571" height="19.6" transform="matrix(1 0 -0.221378 0.975188 19.0269 0.243164)" fill="#1660D0"/>
<rect width="12.8571" height="19.6" transform="matrix(1 0 -0.221378 0.975188 39.8838 0.243164)" fill="#FF4242"/>
<rect width="12.8571" height="19.6" transform="matrix(1 0 -0.221378 0.975188 60.7407 0.243164)" fill="#1660D0"/>
<rect width="12.8571" height="19.6" transform="matrix(1 0 -0.221378 0.975188 81.5981 0.243164)" fill="#FF4242"/>
<rect width="12.8571" height="19.6" transform="matrix(1 0 -0.221378 0.975188 102.455 0.243164)" fill="#1660D0"/>
<rect width="12.8571" height="19.6" transform="matrix(1 0 -0.221378 0.975188 123.312 0.243164)" fill="#FF4242"/>
<rect width="12.8571" height="19.6" transform="matrix(1 0 -0.221378 0.975188 -1.83057 27.8433)" fill="#1660D0"/>
<rect width="12.8571" height="19.6" transform="matrix(1 0 -0.221378 0.975188 19.0269 27.8433)" fill="#FF4242"/>
<rect width="12.8571" height="19.6" transform="matrix(1 0 -0.221378 0.975188 39.8838 27.8433)" fill="#1660D0"/>
<rect width="12.8571" height="19.6" transform="matrix(1 0 -0.221378 0.975188 60.7407 27.8433)" fill="#FF4242"/>
<rect width="12.8571" height="19.6" transform="matrix(1 0 -0.221378 0.975188 81.5981 27.8433)" fill="#1660D0"/>
<rect width="12.8571" height="19.6" transform="matrix(1 0 -0.221378 0.975188 102.455 27.8433)" fill="#FF4242"/>
<rect width="12.8571" height="19.6" transform="matrix(1 0 -0.221378 0.975188 123.312 27.8433)" fill="#1660D0"/>
<rect width="12.8571" height="19.6" transform="matrix(1 0 -0.221378 0.975188 -1.83057 55.4434)" fill="#FF4242"/>
<rect width="12.8571" height="19.6" transform="matrix(1 0 -0.221378 0.975188 19.0269 55.4434)" fill="#1660D0"/>
<rect width="12.8571" height="19.6" transform="matrix(1 0 -0.221378 0.975188 39.8838 55.4434)" fill="#FF4242"/>
<rect width="12.8571" height="19.6" transform="matrix(1 0 -0.221378 0.975188 60.7407 55.4434)" fill="#1660D0"/>
<rect width="12.8571" height="19.6" transform="matrix(1 0 -0.221378 0.975188 81.5981 55.4434)" fill="#FF4242"/>
<rect width="12.8571" height="19.6" transform="matrix(1 0 -0.221378 0.975188 102.455 55.4434)" fill="#1660D0"/>
<rect width="12.8571" height="19.6" transform="matrix(1 0 -0.221378 0.975188 123.312 55.4434)" fill="#FF4242"/>
<rect width="12.8571" height="19.6" transform="matrix(1 0 -0.221378 0.975188 -1.83057 83.043)" fill="#1660D0"/>
<rect width="12.8571" height="19.6" transform="matrix(1 0 -0.221378 0.975188 19.0269 83.043)" fill="#FF4242"/>
<rect width="12.8571" height="19.6" transform="matrix(1 0 -0.221378 0.975188 39.8838 83.043)" fill="#1660D0"/>
<rect width="12.8571" height="19.6" transform="matrix(1 0 -0.221378 0.975188 60.7407 83.043)" fill="#FF4242"/>
<rect width="12.8571" height="19.6" transform="matrix(1 0 -0.221378 0.975188 81.5981 83.043)" fill="#1660D0"/>
<rect width="12.8571" height="19.6" transform="matrix(1 0 -0.221378 0.975188 102.455 83.043)" fill="#FF4242"/>
<rect width="12.8571" height="19.6" transform="matrix(1 0 -0.221378 0.975188 123.312 83.043)" fill="#1660D0"/>
<rect width="12.8571" height="19.6" transform="matrix(1 0 -0.221378 0.975188 -1.83057 110.643)" fill="#FF4242"/>
<rect width="12.8571" height="19.6" transform="matrix(1 0 -0.221378 0.975188 19.0269 110.643)" fill="#1660D0"/>
<rect width="12.8571" height="19.6" transform="matrix(1 0 -0.221378 0.975188 39.8838 110.643)" fill="#FF4242"/>
<rect width="12.8571" height="19.6" transform="matrix(1 0 -0.221378 0.975188 60.7407 110.643)" fill="#1660D0"/>
<rect width="12.8571" height="19.6" transform="matrix(1 0 -0.221378 0.975188 81.5981 110.643)" fill="#FF4242"/>
<rect width="12.8571" height="19.6" transform="matrix(1 0 -0.221378 0.975188 102.455 110.643)" fill="#1660D0"/>
<rect width="12.8571" height="19.6" transform="matrix(1 0 -0.221378 0.975188 123.312 110.643)" fill="#FF4242"/>
</g>
<defs>
<clipPath id="clip0_175_8111">
<rect width="130" height="130" fill="white"/>
</clipPath>
</defs>
</svg>
