<svg width="142" height="176" viewBox="0 0 142 176" fill="none" xmlns="http://www.w3.org/2000/svg">
<mask id="mask0_131_543" style="mask-type:alpha" maskUnits="userSpaceOnUse" x="0" y="0" width="137" height="176">
<rect width="136.632" height="176" rx="7.41053" fill="#AD9ECF"/>
</mask>
<g mask="url(#mask0_131_543)">
<path fill-rule="evenodd" clip-rule="evenodd" d="M0 0H136.632V176H0V0ZM25.7053 9.26316C25.7053 7.98418 26.7421 6.94737 28.0211 6.94737H42.8421C44.1211 6.94737 45.1579 7.98418 45.1579 9.26316C45.1579 10.5421 44.1211 11.5789 42.8421 11.5789H28.0211C26.7421 11.5789 25.7053 10.5421 25.7053 9.26316ZM93.7895 6.94737C92.5105 6.94737 91.4737 7.98418 91.4737 9.26316C91.4737 10.5421 92.5105 11.5789 93.7895 11.5789H108.611C109.89 11.5789 110.926 10.5421 110.926 9.26316C110.926 7.98418 109.89 6.94737 108.611 6.94737H93.7895Z" fill="#A999C9"/>
<rect y="105.6" width="136.632" height="70.4" fill="#857E34"/>
<path d="M66.7586 136.536H42.2953C56.401 141.233 66.7586 154.055 66.7586 169.808V176.99H48.9398L31.0298 145.347L12.8748 176.99H-4.63159V169.808C-4.63159 154.055 5.72607 141.233 19.8318 136.536H-4.63159V119.198H22.8051C21.8665 117.555 21.606 115.911 21.606 114.569C21.606 109.616 25.6021 105.6 30.5314 105.6C35.4608 105.6 39.4569 109.616 39.4569 114.569C39.4569 115.894 39.0887 117.976 38.3166 119.198H66.7586V136.536Z" fill="black"/>
<path d="M138.085 105.6H66.6947V115.799C66.6947 132.586 84.2075 141.295 84.2075 141.295C84.2075 141.295 66.6947 150.005 66.6947 166.792L66.6947 176.99L138.085 176.99V166.792C138.085 150.005 120.572 141.295 120.572 141.295C120.572 141.295 138.085 132.586 138.085 115.799V105.6Z" fill="black"/>
<rect x="37.5158" y="139.874" width="99.1158" height="36.1263" fill="#B4C094"/>
<path fill-rule="evenodd" clip-rule="evenodd" d="M60.0889 160.837C58.08 165.082 62.961 168.378 66.1156 165.03C66.1254 165.02 66.1372 165.012 66.1504 165.006C66.1636 165.001 66.1778 164.998 66.1921 164.999C66.2065 164.999 66.2207 165.003 66.2337 165.009C66.2468 165.015 66.2586 165.024 66.2682 165.035C67.5756 166.577 69.6847 166.836 71.2973 165.665C72.9417 164.474 72.9622 162.518 72.206 160.716C72.1726 160.634 72.1954 160.574 72.2744 160.536C75.4153 159.04 75.3264 154.662 71.894 153.674C71.4736 153.554 70.9808 153.561 70.4916 153.567C70.2917 153.57 70.0923 153.572 69.8988 153.567C69.8183 153.563 69.7743 153.522 69.7667 153.441C69.3726 149.394 63.847 148.818 62.69 152.617C62.6065 152.885 62.5252 153.16 62.4463 153.439C62.4235 153.518 62.3703 153.56 62.2868 153.564C62.0801 153.574 61.8648 153.571 61.6496 153.568C61.2365 153.562 60.8235 153.556 60.4715 153.644C57.3398 154.432 56.866 158.302 59.4033 160.149C59.625 160.31 59.8406 160.48 60.0502 160.659C60.1079 160.708 60.1208 160.767 60.0889 160.837ZM108.577 156.128L108.687 156.202C108.783 156.266 108.781 156.325 108.68 156.379C107.439 157.056 106.549 157.605 106.405 159.117C106.259 160.655 106.029 163.502 106.824 164.834C108.316 167.346 112.206 166.208 112.115 163.192C112.073 161.774 112.051 160.356 112.049 158.94C112.049 157.543 110.935 156.958 109.778 156.4C109.667 156.345 109.663 156.283 109.765 156.213C109.942 156.092 110.13 155.978 110.318 155.865C110.708 155.631 111.095 155.398 111.373 155.097C112.246 154.153 112.412 153.081 111.871 151.881C110.833 149.571 107.239 149.786 106.494 152.218C105.854 154.297 107.136 155.159 108.577 156.128ZM57.6381 163.067C57.6791 163.076 57.7125 163.095 57.7383 163.126C57.7869 163.188 57.7809 163.244 57.7201 163.294L54.3082 166.062C54.2307 166.124 54.1427 166.155 54.044 166.155L49.5023 166.128C49.4127 166.128 49.333 166.101 49.2632 166.048C49.0042 165.853 48.71 165.637 48.4012 165.411L48.4012 165.411C47.0397 164.412 45.3923 163.204 45.2067 162.636C45.1471 162.454 45.0683 162.228 44.9795 161.973C44.5285 160.68 43.8182 158.644 44.0428 157.757C44.0679 157.659 44.101 157.526 44.1406 157.365L44.1407 157.365L44.1407 157.365C44.4237 156.219 45.0407 153.719 45.4982 153.348C46.6097 152.444 47.7364 151.56 48.8782 150.694C49.6289 150.125 52.3267 150.29 53.7239 150.375C53.9081 150.386 54.0696 150.396 54.2011 150.403C54.274 150.406 54.3393 150.43 54.397 150.476L57.7042 153.145C57.768 153.197 57.774 153.254 57.7224 153.318L55.5951 155.885C55.5419 155.947 55.4827 155.954 55.4174 155.906C55.2806 155.802 55.0801 155.623 54.8467 155.416C54.2134 154.852 53.3384 154.073 52.8391 153.99C50.9031 153.671 49.3991 154.304 48.3271 155.89C48.1448 156.158 47.9717 156.72 47.8077 157.575C47.5868 158.734 48.0332 160.459 48.9101 161.29C50.0216 162.342 52.1854 163.199 53.5361 162.06C54.151 161.541 54.7819 161.039 55.4288 160.554C55.4926 160.506 55.5495 160.512 55.5996 160.573C56.2996 161.406 56.9791 162.238 57.6381 163.067ZM93.6297 160.853C89.4206 165.558 99.0414 169.262 98.6064 162.115C98.6003 162.033 98.6193 161.957 98.6633 161.889C99.0278 161.318 99.5805 161.068 100.321 161.14C102.318 161.333 103.524 160.485 103.938 158.596C104.146 157.646 103.643 156.922 103.106 156.15L103.106 156.15L103.106 156.149C103.023 156.031 102.94 155.911 102.859 155.79C102.812 155.718 102.819 155.653 102.882 155.594C104.307 154.273 104.332 151.826 102.611 150.783C101.456 150.084 95.2241 150.073 94.042 150.719C92.4157 151.612 92.2449 153.86 93.3108 155.27C93.3594 155.334 93.3837 155.407 93.3837 155.489V156.031C93.3837 156.102 93.3625 156.167 93.3199 156.225C92.065 157.937 92.6571 159.099 93.6456 160.655C93.6897 160.724 93.6844 160.79 93.6297 160.853ZM85.2889 156.532H89.1792C89.2069 156.532 89.2336 156.543 89.2532 156.563C89.2729 156.582 89.2839 156.609 89.2839 156.637V165.993C89.2839 166.021 89.2729 166.048 89.2532 166.068C89.2336 166.087 89.2069 166.098 89.1792 166.098H84.3779C84.3501 166.098 84.3234 166.087 84.3038 166.068C84.2841 166.048 84.2731 166.021 84.2731 165.993V157.149C84.2731 157.136 84.2704 157.122 84.2651 157.109C84.2598 157.096 84.2521 157.085 84.2424 157.075C84.2327 157.065 84.2211 157.058 84.2084 157.052C84.1957 157.047 84.1821 157.044 84.1683 157.044H81.4169C81.3891 157.044 81.3625 157.056 81.3428 157.075C81.3232 157.095 81.3121 157.121 81.3121 157.149V165.993C81.3121 166.021 81.3011 166.048 81.2814 166.068C81.2618 166.087 81.2351 166.098 81.2074 166.098H76.406C76.3783 166.098 76.3516 166.087 76.332 166.068C76.3123 166.048 76.3013 166.021 76.3013 165.993V156.637C76.3013 156.609 76.3123 156.582 76.332 156.563C76.3516 156.543 76.3783 156.532 76.406 156.532H80.2963C80.3241 156.532 80.3507 156.521 80.3704 156.501C80.39 156.482 80.4011 156.455 80.4011 156.427V150.487C80.4011 150.459 80.4121 150.433 80.4317 150.413C80.4514 150.393 80.478 150.382 80.5058 150.382H85.0794C85.1072 150.382 85.1338 150.393 85.1535 150.413C85.1731 150.433 85.1841 150.459 85.1841 150.487V156.427C85.1841 156.441 85.1869 156.455 85.1921 156.467C85.1974 156.48 85.2051 156.492 85.2148 156.501C85.2246 156.511 85.2361 156.519 85.2488 156.524C85.2615 156.529 85.2752 156.532 85.2889 156.532ZM131.537 152.537C131.537 153.658 130.628 154.566 129.507 154.566C128.387 154.566 127.478 153.658 127.478 152.537C127.478 151.416 128.387 150.508 129.507 150.508C130.628 150.508 131.537 151.416 131.537 152.537ZM121.599 162.727C124.973 162.727 127.708 159.992 127.708 156.619C127.708 153.245 124.973 150.51 121.599 150.51C118.226 150.51 115.491 153.245 115.491 156.619C115.491 159.992 118.226 162.727 121.599 162.727ZM118.429 164.082H124.747C125.941 164.082 126.909 165.05 126.909 166.244V166.431C126.909 167.624 125.941 168.592 124.747 168.592H118.429C117.235 168.592 116.267 167.624 116.267 166.431V166.244C116.267 165.05 117.235 164.082 118.429 164.082Z" fill="black"/>
<rect width="61.2632" height="17.2632" transform="translate(9.26315 27.7895)" fill="black"/>
<path d="M17.4407 40.5767C15.7066 40.5767 14.6506 39.643 14.2838 38.4202L15.362 37.9311C15.6399 38.8204 16.2846 39.5763 17.5073 39.5763C18.5745 39.5763 19.1525 39.065 19.1525 38.3313C19.1525 37.6866 18.6967 37.2975 17.7408 37.0975L16.707 36.864C15.4954 36.6084 14.6728 36.0192 14.6728 34.6964C14.6728 33.4404 15.7399 32.4844 17.3851 32.4844C19.0969 32.4844 19.9639 33.5404 20.1974 34.3185L19.1525 34.7965C18.9746 34.274 18.5078 33.4848 17.285 33.4848C16.318 33.4848 15.7844 33.9739 15.7844 34.6409C15.7844 35.2745 16.1735 35.5857 17.0183 35.7747L18.0854 36.0081C19.3859 36.286 20.3196 37.0196 20.3196 38.2313C20.3196 39.5874 19.3192 40.5767 17.4407 40.5767ZM21.9645 40.4211V32.64H25.1214C26.7665 32.64 27.7114 33.6071 27.7114 35.0077C27.7114 36.4194 26.7554 37.3865 25.1103 37.3865H23.0761V40.4211H21.9645ZM23.0761 36.4194H24.9102C25.9995 36.4194 26.5442 35.8191 26.5442 35.0077C26.5442 34.2074 26.0218 33.6627 24.9102 33.6627H23.0761V36.4194ZM29.1724 40.4211V32.64H34.6747V33.6627H30.284V35.8858H33.5298V36.8974H30.284V39.3984H34.6747V40.4211H29.1724ZM41.4615 40.4211L40.739 38.3647H37.3153L36.5817 40.4211H35.3812L38.3046 32.64H39.8386L42.7065 40.4211H41.4615ZM37.6822 37.342H40.3722L39.6274 35.23C39.3273 34.3519 39.1606 33.885 39.0383 33.5626C38.916 33.885 38.7382 34.4074 38.438 35.23L37.6822 37.342ZM49.1471 40.4211L46.168 36.6417L45.1231 37.6977V40.4211H44.0116V32.64H45.1231V34.4852V36.3082L48.5468 32.64H50.0474L46.935 35.8525L50.6032 40.4211H49.1471ZM51.5994 40.4211V32.64H57.1017V33.6627H52.711V35.8858H55.9568V36.8974H52.711V39.3984H57.1017V40.4211H51.5994ZM58.753 40.4211V32.64H62.0766C63.6884 32.64 64.5888 33.5626 64.5888 34.752C64.5888 35.9525 63.744 36.6306 62.7325 36.8307C63.7773 36.9974 64.1553 37.5199 64.3442 38.4647L64.7333 40.4211H63.5217L63.2104 38.5647C63.0326 37.5754 62.5213 37.2086 61.4764 37.2086H59.8646V40.4211H58.753ZM59.8646 36.2082H61.9099C62.7769 36.2082 63.4216 35.808 63.4216 34.9299C63.4216 34.0517 62.7769 33.6627 61.9099 33.6627H59.8646V36.2082Z" fill="white"/>
<path d="M15.5102 69.8737L12.5312 66.0943L11.4863 67.1503V69.8737H10.3747V62.0926H11.4863V63.9379V65.7608L14.91 62.0926H16.4106L13.2982 65.3051L16.9664 69.8737H15.5102ZM19.1853 70.0293C18.1071 70.0293 17.4068 69.4291 17.4068 68.4509C17.4068 66.928 19.0853 66.4167 20.8749 66.2722V66.1054C20.8749 65.4718 20.5303 65.0828 19.7189 65.0828C18.7518 65.0828 18.4405 65.6497 18.296 66.0721L17.2956 65.7497C17.4735 64.9939 18.2627 64.2046 19.7189 64.2046C21.2084 64.2046 21.9198 64.9494 21.9198 66.1388V68.6621C21.9198 68.9177 21.9865 68.9844 22.2421 68.9844H22.809V69.8737H22.0087C21.2084 69.8737 21.0528 69.5069 20.9861 69.04C20.597 69.6403 20.0634 70.0293 19.1853 70.0293ZM19.4632 69.1734C20.1635 69.1734 20.8749 68.6954 20.8749 67.595V67.028C19.5855 67.1614 18.485 67.4838 18.485 68.3619C18.485 68.8622 18.8074 69.1734 19.4632 69.1734ZM25.645 69.8737C24.7336 69.8737 24.2556 69.4291 24.2556 68.5176V65.2273H22.9995V64.3603H24.2556V62.6373H25.3005V64.3603H26.79V65.2273H25.3005V68.4286C25.3005 68.8066 25.4672 68.9733 25.8451 68.9733H27.0012V69.8737H25.645ZM28.1835 69.8737V62.0926H29.2284V64.1379V65.2829C29.3285 65.0161 29.8064 64.2046 31.0625 64.2046C32.3186 64.2046 32.9077 65.0383 32.9077 66.2611V69.8737H31.8629V66.5056C31.8629 65.5163 31.4071 65.1161 30.6957 65.1161C29.2506 65.1161 29.2284 66.7168 29.2284 67.4949V69.8737H28.1835ZM34.6533 69.8737V64.3603H35.6759V65.5274C35.8649 65.105 36.4096 64.2824 37.51 64.2824C37.7435 64.2824 37.8991 64.3047 38.0214 64.338V65.4051C37.8435 65.3829 37.6545 65.3607 37.4322 65.3607C36.2095 65.3607 35.6982 66.0943 35.6982 67.3949V69.8737H34.6533ZM42.494 64.3603H43.5944L41.4269 70.6518C41.0712 71.6967 40.6599 72.0413 39.6928 72.0413H38.5479V71.1075H39.6595C40.0374 71.1075 40.2597 71.0186 40.4153 70.5962L40.6932 69.807L38.2589 64.3603H39.426L40.5598 67.1059C40.9267 67.9618 41.0267 68.2063 41.1267 68.4731C41.2268 68.173 41.2935 67.9618 41.5491 67.217L42.494 64.3603ZM44.7704 69.8737V64.3603H45.7819V65.2829C45.8931 65.0161 46.4266 64.2046 47.5827 64.2046C48.9388 64.2046 49.4946 65.0383 49.4946 66.2611V69.8737H48.4497V66.5056C48.4497 65.5163 47.9939 65.1161 47.2825 65.1161C45.8375 65.1161 45.8153 66.7168 45.8153 67.4949V69.8737H44.7704ZM57.4081 70.0293C55.1738 70.0293 53.7287 68.4731 53.7287 65.9832C53.7287 63.5933 55.4962 61.937 57.6304 61.937C59.609 61.937 60.7317 63.0931 61.1319 64.2713L59.998 64.7271C59.6201 63.7044 58.9198 62.9708 57.6082 62.9708C56.2409 62.9708 54.9181 63.9934 54.9181 65.972C54.9181 67.9062 56.0075 69.0178 57.5637 69.0178C59.0643 69.0178 59.898 67.9951 59.9647 67.0614H57.2747V66.0387H61.1096V69.8737H60.0314V68.5176C59.7535 69.0734 59.0421 70.0293 57.4081 70.0293ZM64.9365 70.0293C63.447 70.0293 62.3132 68.7843 62.3132 67.1281C62.3132 65.4496 63.4136 64.2046 64.9365 64.2046C66.4594 64.2046 67.5487 65.4496 67.5487 67.1281C67.5487 68.8066 66.4149 70.0293 64.9365 70.0293ZM64.9365 69.1289C65.8369 69.1289 66.4594 68.4842 66.4594 67.1392C66.4594 65.7831 65.8369 65.105 64.9365 65.105C64.025 65.105 63.4025 65.7831 63.4025 67.1392C63.4025 68.4842 64.025 69.1289 64.9365 69.1289ZM68.9342 69.8737V64.3603H69.9457V65.2829C70.0569 65.0161 70.5904 64.2046 71.7465 64.2046C73.1026 64.2046 73.6584 65.0383 73.6584 66.2611V69.8737H72.6135V66.5056C72.6135 65.5163 72.1578 65.1161 71.4464 65.1161C70.0013 65.1161 69.9791 66.7168 69.9791 67.4949V69.8737H68.9342ZM74.9593 69.8737V68.9511L78.0384 65.2606H76.8045H75.0593V64.3603H79.3945V65.1384L76.1931 68.9733H77.5048H79.539V69.8737H74.9593ZM82.2761 70.0293C81.1979 70.0293 80.4976 69.4291 80.4976 68.4509C80.4976 66.928 82.176 66.4167 83.9657 66.2722V66.1054C83.9657 65.4718 83.6211 65.0828 82.8096 65.0828C81.8426 65.0828 81.5313 65.6497 81.3868 66.0721L80.3864 65.7497C80.5643 64.9939 81.3535 64.2046 82.8096 64.2046C84.2992 64.2046 85.0106 64.9494 85.0106 66.1388V68.6621C85.0106 68.9177 85.0773 68.9844 85.3329 68.9844H85.8998V69.8737H85.0995C84.2992 69.8737 84.1435 69.5069 84.0768 69.04C83.6878 69.6403 83.1542 70.0293 82.2761 70.0293ZM82.554 69.1734C83.2543 69.1734 83.9657 68.6954 83.9657 67.595V67.028C82.6763 67.1614 81.5758 67.4838 81.5758 68.3619C81.5758 68.8622 81.8982 69.1734 82.554 69.1734ZM86.8888 69.8737V62.0926H87.9337V69.8737H86.8888ZM91.878 70.0293C90.344 70.0293 89.3324 68.9955 89.3324 67.1392C89.3324 65.3384 90.3996 64.2046 91.8335 64.2046C93.4786 64.2046 94.4568 65.583 94.2567 67.3838H90.3773C90.4218 68.7065 91.1554 69.1512 91.9113 69.1512C92.8006 69.1512 93.1896 68.4842 93.3452 68.0952L94.3012 68.4398C93.901 69.4958 93.0229 70.0293 91.878 70.0293ZM90.3996 66.5501H93.2007C93.1896 65.5608 92.5671 65.0383 91.8335 65.0383C91.1221 65.0383 90.4885 65.5941 90.3996 66.5501ZM95.2803 69.8737V68.9511L98.3594 65.2606H97.1256H95.3804V64.3603H99.7155V65.1384L96.5142 68.9733H97.8259H99.8601V69.8737H95.2803Z" fill="black"/>
<path d="M0 80.2842H136.632" stroke="black" stroke-width="0.463158"/>
<path d="M9.91157 93.6947V89.1558H11.5002C12.797 89.1558 13.6919 90.0506 13.6919 91.4123C13.6919 92.8388 12.823 93.6947 11.4678 93.6947H9.91157ZM10.56 93.0982H11.3705C12.4793 93.0982 13.011 92.5211 13.011 91.4123C13.011 90.4137 12.4923 89.7523 11.4159 89.7523H10.56V93.0982ZM15.808 93.7855C14.9132 93.7855 14.3231 93.1825 14.3231 92.0996C14.3231 91.0492 14.9456 90.3878 15.7821 90.3878C16.7417 90.3878 17.3123 91.1918 17.1956 92.2423H14.9326C14.9586 93.0139 15.3865 93.2733 15.8275 93.2733C16.3462 93.2733 16.5731 92.8842 16.6639 92.6573L17.2216 92.8583C16.9881 93.4743 16.4759 93.7855 15.808 93.7855ZM14.9456 91.756H16.5796C16.5731 91.1789 16.21 90.8741 15.7821 90.8741C15.3671 90.8741 14.9975 91.1983 14.9456 91.756ZM19.1609 93.7855C18.4865 93.7855 17.8835 93.4743 17.7473 92.8648L18.3244 92.6767C18.4087 93.0074 18.6422 93.2862 19.1674 93.2862C19.6148 93.2862 19.8547 93.1241 19.8547 92.8388C19.8547 92.6119 19.7185 92.4498 19.2776 92.3655L18.8886 92.2941C18.3374 92.1839 17.877 91.9764 17.877 91.3604C17.877 90.7833 18.4217 90.3878 19.0896 90.3878C19.8871 90.3878 20.2697 90.7963 20.3994 91.2048L19.8612 91.4123C19.7834 91.1918 19.5889 90.8741 19.0831 90.8741C18.6551 90.8741 18.4606 91.0751 18.4606 91.3021C18.4606 91.5096 18.5579 91.6328 19.0053 91.717L19.3878 91.7884C19.7574 91.8662 20.4707 92.0737 20.4707 92.7869C20.4707 93.3965 19.9909 93.7855 19.1609 93.7855ZM21.2429 89.882V89.1558H21.8914V89.882H21.2429ZM21.2624 93.6947V90.4786H21.8784V93.6947H21.2624ZM23.4789 94.9592C22.85 94.9592 22.623 94.6868 22.623 94.3107C22.623 93.9865 22.85 93.7531 23.038 93.6364C22.8564 93.5261 22.7527 93.3705 22.7527 93.1112C22.7527 92.7934 23.0121 92.573 23.2325 92.4303C23.0445 92.2617 22.8759 91.9699 22.8759 91.5874C22.8759 90.9065 23.4206 90.3878 24.1727 90.3878C24.7693 90.3878 25.1259 90.7055 25.275 90.9584C25.3334 90.6796 25.4761 90.4786 25.8068 90.4786H26.1374V90.9843H25.8716C25.5993 90.9843 25.4955 91.0492 25.4696 91.4188L25.4566 91.5744C25.3982 92.3006 24.899 92.7675 24.1792 92.7675C23.9588 92.7675 23.7513 92.7416 23.5697 92.6443C23.3946 92.7156 23.2844 92.8323 23.2844 92.949C23.2844 93.0528 23.3492 93.1565 23.5697 93.1565H24.9638C25.5928 93.1565 26.0013 93.5197 26.0013 94.0578C26.0013 94.6609 25.5344 94.9592 24.9768 94.9592H23.4789ZM24.1792 92.2877C24.6007 92.2877 24.873 92.0088 24.873 91.5809C24.873 91.1594 24.6007 90.8676 24.1792 90.8676C23.7577 90.8676 23.4854 91.1594 23.4854 91.5809C23.4854 92.0088 23.7577 92.2877 24.1792 92.2877ZM23.6475 94.4404H24.899C25.1583 94.4404 25.3853 94.3691 25.3853 94.0643C25.3853 93.7596 25.1583 93.6947 24.899 93.6947H23.3946C23.2909 93.7596 23.1612 93.9022 23.1612 94.1032C23.1612 94.3626 23.3363 94.4404 23.6475 94.4404ZM26.7716 93.6947V90.4786H27.3616V91.0168C27.4265 90.8611 27.7377 90.3878 28.4121 90.3878C29.2032 90.3878 29.5274 90.8741 29.5274 91.5874V93.6947H28.9179V91.73C28.9179 91.1529 28.652 90.9195 28.237 90.9195C27.3941 90.9195 27.3811 91.8532 27.3811 92.3071V93.6947H26.7716ZM31.7906 93.7855C30.8957 93.7855 30.3057 93.1825 30.3057 92.0996C30.3057 91.0492 30.9282 90.3878 31.7646 90.3878C32.7243 90.3878 33.2949 91.1918 33.1782 92.2423H30.9152C30.9411 93.0139 31.3691 93.2733 31.81 93.2733C32.3288 93.2733 32.5557 92.8842 32.6465 92.6573L33.2041 92.8583C32.9707 93.4743 32.4584 93.7855 31.7906 93.7855ZM30.9282 91.756H32.5622C32.5557 91.1789 32.1926 90.8741 31.7646 90.8741C31.3496 90.8741 30.98 91.1983 30.9282 91.756ZM34.0347 93.6947V90.4786H34.6312V91.1594C34.7414 90.913 35.0592 90.4332 35.7011 90.4332C35.8373 90.4332 35.9281 90.4461 35.9994 90.4656V91.0881C35.8956 91.0751 35.7854 91.0621 35.6557 91.0621C34.9425 91.0621 34.6442 91.4901 34.6442 92.2488V93.6947H34.0347ZM36.1024 94.6025L36.6147 93.6947H36.1737V92.8518H36.9972V93.6947L36.4915 94.6025H36.1024ZM39.7617 93.6947V89.1558H42.9714V89.7523H40.4102V91.0492H42.3035V91.6392H40.4102V93.0982H42.9714V93.6947H39.7617ZM43.742 93.6947V90.4786H44.332V91.0168C44.3969 90.8611 44.7081 90.3878 45.3825 90.3878C46.1736 90.3878 46.4978 90.8741 46.4978 91.5874V93.6947H45.8883V91.73C45.8883 91.1529 45.6224 90.9195 45.2074 90.9195C44.3645 90.9195 44.3515 91.8532 44.3515 92.3071V93.6947H43.742ZM48.0607 94.9592C47.4317 94.9592 47.2048 94.6868 47.2048 94.3107C47.2048 93.9865 47.4317 93.7531 47.6197 93.6364C47.4382 93.5261 47.3344 93.3705 47.3344 93.1112C47.3344 92.7934 47.5938 92.573 47.8143 92.4303C47.6262 92.2617 47.4576 91.9699 47.4576 91.5874C47.4576 90.9065 48.0023 90.3878 48.7545 90.3878C49.351 90.3878 49.7077 90.7055 49.8568 90.9584C49.9152 90.6796 50.0578 90.4786 50.3885 90.4786H50.7192V90.9843H50.4533C50.181 90.9843 50.0773 91.0492 50.0513 91.4188L50.0384 91.5744C49.98 92.3006 49.4807 92.7675 48.761 92.7675C48.5405 92.7675 48.333 92.7416 48.1514 92.6443C47.9764 92.7156 47.8661 92.8323 47.8661 92.949C47.8661 93.0528 47.931 93.1565 48.1514 93.1565H49.5456C50.1745 93.1565 50.583 93.5197 50.583 94.0578C50.583 94.6609 50.1162 94.9592 49.5585 94.9592H48.0607ZM48.761 92.2877C49.1824 92.2877 49.4548 92.0088 49.4548 91.5809C49.4548 91.1594 49.1824 90.8676 48.761 90.8676C48.3395 90.8676 48.0672 91.1594 48.0672 91.5809C48.0672 92.0088 48.3395 92.2877 48.761 92.2877ZM48.2293 94.4404H49.4807C49.7401 94.4404 49.967 94.3691 49.967 94.0643C49.967 93.7596 49.7401 93.6947 49.4807 93.6947H47.9764C47.8726 93.7596 47.7429 93.9022 47.7429 94.1032C47.7429 94.3626 47.918 94.4404 48.2293 94.4404ZM51.3274 89.882V89.1558H51.9758V89.882H51.3274ZM51.3468 93.6947V90.4786H51.9628V93.6947H51.3468ZM53.0187 93.6947V90.4786H53.6088V91.0168C53.6736 90.8611 53.9849 90.3878 54.6592 90.3878C55.4503 90.3878 55.7745 90.8741 55.7745 91.5874V93.6947H55.165V91.73C55.165 91.1529 54.8991 90.9195 54.4841 90.9195C53.6412 90.9195 53.6282 91.8532 53.6282 92.3071V93.6947H53.0187ZM58.0377 93.7855C57.1429 93.7855 56.5528 93.1825 56.5528 92.0996C56.5528 91.0492 57.1753 90.3878 58.0117 90.3878C58.9714 90.3878 59.542 91.1918 59.4253 92.2423H57.1623C57.1883 93.0139 57.6162 93.2733 58.0571 93.2733C58.5759 93.2733 58.8028 92.8842 58.8936 92.6573L59.4512 92.8583C59.2178 93.4743 58.7056 93.7855 58.0377 93.7855ZM57.1753 91.756H58.8093C58.8028 91.1789 58.4397 90.8741 58.0117 90.8741C57.5968 90.8741 57.2272 91.1983 57.1753 91.756ZM61.5268 93.7855C60.6319 93.7855 60.0419 93.1825 60.0419 92.0996C60.0419 91.0492 60.6643 90.3878 61.5008 90.3878C62.4605 90.3878 63.0311 91.1918 62.9144 92.2423H60.6514C60.6773 93.0139 61.1053 93.2733 61.5462 93.2733C62.0649 93.2733 62.2919 92.8842 62.3827 92.6573L62.9403 92.8583C62.7069 93.4743 62.1946 93.7855 61.5268 93.7855ZM60.6643 91.756H62.2984C62.2919 91.1789 61.9288 90.8741 61.5008 90.8741C61.0858 90.8741 60.7162 91.1983 60.6643 91.756ZM63.7708 93.6947V90.4786H64.3674V91.1594C64.4776 90.913 64.7954 90.4332 65.4373 90.4332C65.5735 90.4332 65.6642 90.4461 65.7356 90.4656V91.0881C65.6318 91.0751 65.5216 91.0621 65.3919 91.0621C64.6786 91.0621 64.3804 91.4901 64.3804 92.2488V93.6947H63.7708ZM65.8386 94.6025L66.3508 93.6947H65.9099V92.8518H66.7334V93.6947L66.2276 94.6025H65.8386ZM71.4562 93.7855C70.1463 93.7855 69.1737 92.8388 69.1737 91.4253C69.1737 90.0182 70.1528 89.065 71.4562 89.065C72.7595 89.065 73.7191 90.0182 73.7191 91.4253C73.7191 92.8388 72.7595 93.7855 71.4562 93.7855ZM71.4497 93.1954C72.4418 93.1954 73.0318 92.4368 73.0318 91.4253C73.0318 90.4137 72.4418 89.6551 71.4497 89.6551C70.4576 89.6551 69.8675 90.4137 69.8675 91.4253C69.8675 92.4368 70.4576 93.1954 71.4497 93.1954ZM74.58 93.6947V90.4786H75.17V91.0168C75.2349 90.8611 75.5461 90.3878 76.2205 90.3878C77.0116 90.3878 77.3358 90.8741 77.3358 91.5874V93.6947H76.7263V91.73C76.7263 91.1529 76.4604 90.9195 76.0454 90.9195C75.2025 90.9195 75.1895 91.8532 75.1895 92.3071V93.6947H74.58ZM81.5435 93.7855C80.5319 93.7855 79.9159 93.2408 79.7019 92.5276L80.3309 92.2423C80.493 92.761 80.8691 93.2019 81.5824 93.2019C82.2048 93.2019 82.542 92.9037 82.542 92.4757C82.542 92.0996 82.2762 91.8727 81.7185 91.756L81.1155 91.6198C80.4087 91.4706 79.9289 91.127 79.9289 90.3554C79.9289 89.6226 80.5514 89.065 81.511 89.065C82.5096 89.065 83.0154 89.681 83.1515 90.1349L82.542 90.4137C82.4383 90.109 82.1659 89.6486 81.4527 89.6486C80.8885 89.6486 80.5773 89.9339 80.5773 90.3229C80.5773 90.6925 80.8043 90.8741 81.2971 90.9843L81.9195 91.1205C82.6782 91.2826 83.2229 91.7106 83.2229 92.4173C83.2229 93.2084 82.6393 93.7855 81.5435 93.7855ZM84.8956 93.7855C84.2667 93.7855 83.8582 93.4354 83.8582 92.8648C83.8582 91.9764 84.8373 91.6781 85.8812 91.5938V91.4966C85.8812 91.127 85.6802 90.9 85.2069 90.9C84.6428 90.9 84.4612 91.2307 84.3769 91.4771L83.7933 91.2891C83.8971 90.8482 84.3575 90.3878 85.2069 90.3878C86.0758 90.3878 86.4908 90.8222 86.4908 91.516V92.988C86.4908 93.1371 86.5297 93.176 86.6788 93.176H87.0095V93.6947H86.5426C86.0758 93.6947 85.985 93.4808 85.9461 93.2084C85.7191 93.5586 85.4079 93.7855 84.8956 93.7855ZM85.0577 93.2862C85.4663 93.2862 85.8812 93.0074 85.8812 92.3655V92.0348C85.1291 92.1126 84.4871 92.3006 84.4871 92.8129C84.4871 93.1047 84.6752 93.2862 85.0577 93.2862ZM89.2204 93.7855C88.6563 93.7855 88.3321 93.4743 88.1764 93.2084V93.6947H87.5864V89.1558H88.1959V90.3489V90.9649C88.345 90.699 88.6563 90.3878 89.2204 90.3878C89.9791 90.3878 90.5367 91.0297 90.5367 92.0866C90.5367 93.1371 89.9791 93.7855 89.2204 93.7855ZM89.0453 93.2668C89.5446 93.2668 89.9077 92.949 89.9077 92.0802C89.9077 91.2048 89.5446 90.9065 89.0453 90.9065C88.5331 90.9065 88.1635 91.2891 88.1635 92.0802C88.1635 92.8712 88.5331 93.2668 89.0453 93.2668ZM93.0008 93.7855C92.4366 93.7855 92.1124 93.4743 91.9568 93.2084V93.6947H91.3667V89.1558H91.9763V90.3489V90.9649C92.1254 90.699 92.4366 90.3878 93.0008 90.3878C93.7594 90.3878 94.3171 91.0297 94.3171 92.0866C94.3171 93.1371 93.7594 93.7855 93.0008 93.7855ZM92.8257 93.2668C93.325 93.2668 93.6881 92.949 93.6881 92.0802C93.6881 91.2048 93.325 90.9065 92.8257 90.9065C92.3134 90.9065 91.9438 91.2891 91.9438 92.0802C91.9438 92.8712 92.3134 93.2668 92.8257 93.2668ZM95.9771 93.7855C95.3481 93.7855 94.9396 93.4354 94.9396 92.8648C94.9396 91.9764 95.9187 91.6781 96.9627 91.5938V91.4966C96.9627 91.127 96.7616 90.9 96.2883 90.9C95.7242 90.9 95.5426 91.2307 95.4583 91.4771L94.8747 91.2891C94.9785 90.8482 95.4389 90.3878 96.2883 90.3878C97.1572 90.3878 97.5722 90.8222 97.5722 91.516V92.988C97.5722 93.1371 97.6111 93.176 97.7602 93.176H98.0909V93.6947H97.624C97.1572 93.6947 97.0664 93.4808 97.0275 93.2084C96.8006 93.5586 96.4893 93.7855 95.9771 93.7855ZM96.1392 93.2862C96.5477 93.2862 96.9627 93.0074 96.9627 92.3655V92.0348C96.2105 92.1126 95.5686 92.3006 95.5686 92.8129C95.5686 93.1047 95.7566 93.2862 96.1392 93.2862ZM99.7452 93.6947C99.2135 93.6947 98.9347 93.4354 98.9347 92.9037V90.9843H98.202V90.4786H98.9347V89.4735H99.5442V90.4786H100.413V90.9843H99.5442V92.8518C99.5442 93.0722 99.6415 93.1695 99.862 93.1695H100.536V93.6947H99.7452ZM101.2 89.882V89.1558H101.849V89.882H101.2ZM101.22 93.6947V90.4786H101.836V93.6947H101.22ZM104.208 93.7855C103.267 93.7855 102.645 93.1241 102.645 92.0866C102.645 91.0816 103.3 90.3878 104.201 90.3878C104.934 90.3878 105.394 90.8157 105.556 91.3215L104.986 91.516C104.876 91.1983 104.642 90.913 104.195 90.913C103.695 90.913 103.28 91.3021 103.28 92.0866C103.28 92.8842 103.689 93.2603 104.201 93.2603C104.707 93.2603 104.947 92.9231 105.057 92.5665L105.634 92.7675C105.42 93.364 104.934 93.7855 104.208 93.7855ZM107.172 93.7855C106.543 93.7855 106.135 93.4354 106.135 92.8648C106.135 91.9764 107.114 91.6781 108.158 91.5938V91.4966C108.158 91.127 107.957 90.9 107.484 90.9C106.92 90.9 106.738 91.2307 106.654 91.4771L106.07 91.2891C106.174 90.8482 106.634 90.3878 107.484 90.3878C108.353 90.3878 108.768 90.8222 108.768 91.516V92.988C108.768 93.1371 108.806 93.176 108.956 93.176H109.286V93.6947H108.819C108.353 93.6947 108.262 93.4808 108.223 93.2084C107.996 93.5586 107.685 93.7855 107.172 93.7855ZM107.335 93.2862C107.743 93.2862 108.158 93.0074 108.158 92.3655V92.0348C107.406 92.1126 106.764 92.3006 106.764 92.8129C106.764 93.1047 106.952 93.2862 107.335 93.2862ZM109.863 93.6947V89.1558H110.473V93.6947H109.863Z" fill="black"/>
</g>
<g clip-path="url(#clip0_131_543)">
<rect x="81" y="29.8147" width="56.5206" height="21.1212" rx="3.57337" transform="rotate(-10 81 29.8147)" fill="#B4C094"/>
<path d="M92.7134 44.0577L92.2929 41.6732C96.4813 38.1726 97.1399 37.0187 96.8915 35.6097C96.7113 34.5878 95.9026 34.0758 95.02 34.2314C93.6264 34.4771 93.5197 35.7732 93.6716 36.8161L91.3637 36.8558C91.077 34.9586 91.9508 32.7609 94.7379 32.2695C97.1999 31.8354 98.8701 32.9778 99.2223 34.9752C99.4025 35.9971 99.2403 36.8879 98.7802 37.7194C98.0687 39.0263 96.5347 40.2866 94.4907 41.7327L97.6649 41.173L100.282 40.7116L100.626 42.6625L92.7134 44.0577ZM106.651 41.8556C104.05 42.3143 101.808 40.6499 101.164 36.9957C100.522 33.357 102.051 30.98 104.652 30.5213C107.254 30.0626 109.503 31.7734 110.145 35.4122C110.789 39.0664 109.252 41.3969 106.651 41.8556ZM106.307 39.9046C107.437 39.7053 108.239 38.6379 107.745 35.8353C107.253 33.0482 106.127 32.273 104.996 32.4723C103.866 32.6716 103.075 33.8009 103.564 36.5725C104.055 39.3596 105.177 40.1039 106.307 39.9046ZM112.598 40.5516L112.177 38.167C116.365 34.6665 117.024 33.5126 116.776 32.1036C116.595 31.0816 115.787 30.5697 114.904 30.7253C113.511 30.971 113.404 32.2671 113.556 33.3099L111.248 33.3497C110.961 31.4525 111.835 29.2548 114.622 28.7634C117.084 28.3293 118.754 29.4717 119.106 31.4691C119.287 32.491 119.124 33.3818 118.664 34.2133C117.953 35.5202 116.419 36.7805 114.375 38.2265L117.549 37.6668L120.166 37.2054L120.51 39.1564L112.598 40.5516ZM125.978 38.4477C123.531 38.8791 121.867 37.8634 121.192 35.8431L123.414 34.9563C123.767 36.1395 124.524 36.7243 125.639 36.5277C126.677 36.3448 127.247 35.6855 127.094 34.8184C126.941 33.9513 126.215 33.4566 125.131 33.6477L124.125 33.8252L123.8 31.9826L124.806 31.8051C125.627 31.6604 126.231 31.0111 126.078 30.144C125.928 29.2924 125.154 28.8861 124.318 29.0335C123.404 29.1946 122.928 29.9332 123.049 30.9815L120.743 31.0368C120.613 29.2079 121.641 27.5258 123.979 27.1135C126.317 26.7012 127.942 27.676 128.234 29.3328C128.48 30.7263 127.76 31.7154 126.693 32.2708C128.123 32.322 129.191 33.2193 129.42 34.52C129.767 36.4864 128.455 38.0109 125.978 38.4477Z" fill="black"/>
</g>
<rect x="79.7581" y="28.9451" width="58.6646" height="23.2652" rx="4.64538" transform="rotate(-10 79.7581 28.9451)" stroke="white" stroke-width="2.14402"/>
<defs>
<clipPath id="clip0_131_543">
<rect x="81" y="29.8147" width="56.5206" height="21.1212" rx="3.57337" transform="rotate(-10 81 29.8147)" fill="white"/>
</clipPath>
</defs>
</svg>
