<svg width="130" height="78" viewBox="0 0 130 78" fill="none" xmlns="http://www.w3.org/2000/svg">
<mask id="path-1-outside-1_102_5" maskUnits="userSpaceOnUse" x="0" y="0" width="130" height="78" fill="black">
<rect fill="white" width="130" height="78"/>
<path d="M119.136 21.6202C113.93 11.9709 103.745 5.9632 92.6687 6.00017H8.86389C8.29793 6.00247 7.74516 6.17125 7.27445 6.48549C6.80375 6.79974 6.43592 7.24554 6.21679 7.76736C6.00087 8.28584 5.94464 8.85696 6.05529 9.40759C6.16594 9.95822 6.43845 10.4633 6.8379 10.8581L25.094 28.9737C26.7059 30.5782 28.9019 31.4766 31.1867 31.4766H90.2656C94.4766 31.4322 97.9185 34.767 97.9629 38.9188C98.0073 43.0705 94.6319 46.4718 90.4209 46.5125H49.6905C49.1241 46.5127 48.5703 46.6797 48.0982 46.9927C47.6262 47.3057 47.2567 47.7507 47.036 48.2723C46.818 48.7914 46.7603 49.3638 46.8703 49.9159C46.9803 50.468 47.2531 50.9746 47.6534 51.3704L65.9205 69.5008C67.5426 71.1045 69.7323 72.0027 72.0133 72H90.4357C114.404 72 132.527 46.7121 119.136 21.6091"/>
</mask>
<path d="M119.136 21.6202C113.93 11.9709 103.745 5.9632 92.6687 6.00017H8.86389C8.29793 6.00247 7.74516 6.17125 7.27445 6.48549C6.80375 6.79974 6.43592 7.24554 6.21679 7.76736C6.00087 8.28584 5.94464 8.85696 6.05529 9.40759C6.16594 9.95822 6.43845 10.4633 6.8379 10.8581L25.094 28.9737C26.7059 30.5782 28.9019 31.4766 31.1867 31.4766H90.2656C94.4766 31.4322 97.9185 34.767 97.9629 38.9188C98.0073 43.0705 94.6319 46.4718 90.4209 46.5125H49.6905C49.1241 46.5127 48.5703 46.6797 48.0982 46.9927C47.6262 47.3057 47.2567 47.7507 47.036 48.2723C46.818 48.7914 46.7603 49.3638 46.8703 49.9159C46.9803 50.468 47.2531 50.9746 47.6534 51.3704L65.9205 69.5008C67.5426 71.1045 69.7323 72.0027 72.0133 72H90.4357C114.404 72 132.527 46.7121 119.136 21.6091" fill="#FF3008"/>
<path d="M92.6687 6.00017V12.0002H92.6787L92.6887 12.0001L92.6687 6.00017ZM8.86389 6.00017V0.000169754H8.85171L8.83953 0.000218868L8.86389 6.00017ZM6.21679 7.76736L0.684747 5.44433L0.681319 5.4525L0.677915 5.46067L6.21679 7.76736ZM6.8379 10.8581L11.0641 6.5991L11.0557 6.59074L6.8379 10.8581ZM25.094 28.9737L29.3268 24.7213L29.3202 24.7147L25.094 28.9737ZM90.2656 31.4766V37.4766H90.2972L90.3288 37.4762L90.2656 31.4766ZM90.4209 46.5125V52.5125H90.4499L90.4789 52.5122L90.4209 46.5125ZM49.6905 46.5125V40.5125H49.688L49.6905 46.5125ZM47.036 48.2723L41.5104 45.9338L41.5072 45.9414L41.504 45.949L47.036 48.2723ZM47.6534 51.3704L51.8801 47.1119L51.8721 47.104L47.6534 51.3704ZM65.9205 69.5008L61.6939 73.7594L61.702 73.7674L65.9205 69.5008ZM72.0133 72V66L72.0061 66L72.0133 72ZM124.417 18.7715C118.146 7.14786 105.907 -0.0440507 92.6487 0.000203133L92.6887 12.0001C101.583 11.9704 109.715 16.794 113.855 24.4689L124.417 18.7715ZM92.6687 0.000169754H8.86389V12.0002H92.6687V0.000169754ZM8.83953 0.000218868C7.09601 0.00729609 5.39312 0.527266 3.94304 1.49534L10.6059 11.4757C10.0972 11.8152 9.49985 11.9976 8.88824 12.0001L8.83953 0.000218868ZM3.94304 1.49534C2.49295 2.46341 1.35979 3.83678 0.684747 5.44433L11.7488 10.0904C11.512 10.6543 11.1145 11.1361 10.6059 11.4757L3.94304 1.49534ZM0.677915 5.46067C0.00272655 7.08195 -0.173122 8.86787 0.172892 10.5897L11.9377 8.22549C12.0624 8.84605 11.999 9.48972 11.7557 10.0741L0.677915 5.46067ZM0.172892 10.5897C0.518905 12.3115 1.37103 13.8909 2.62012 15.1255L11.0557 6.59074C11.5059 7.0357 11.813 7.60492 11.9377 8.22549L0.172892 10.5897ZM2.61168 15.1171L20.8677 33.2327L29.3202 24.7147L11.0641 6.5991L2.61168 15.1171ZM20.8611 33.2261C23.6106 35.963 27.3341 37.4766 31.1867 37.4766V25.4766C30.4697 25.4766 29.8012 25.1934 29.3268 24.7213L20.8611 33.2261ZM31.1867 37.4766H90.2656V25.4766H31.1867V37.4766ZM90.3288 37.4762C91.2938 37.4661 91.955 38.211 91.9632 38.9829L103.963 38.8546C103.882 31.3229 97.6594 25.3983 90.2024 25.4769L90.3288 37.4762ZM91.9632 38.9829C91.9714 39.7439 91.3332 40.5034 90.363 40.5128L90.4789 52.5122C97.9305 52.4403 104.043 46.3971 103.963 38.8546L91.9632 38.9829ZM90.4209 40.5125H49.6905V52.5125H90.4209V40.5125ZM49.688 40.5125C47.9432 40.5132 46.2372 41.0277 44.7829 41.9918L51.4136 51.9936C50.9034 52.3318 50.305 52.5122 49.6929 52.5125L49.688 40.5125ZM44.7829 41.9918C43.3286 42.956 42.1905 44.327 41.5104 45.9338L52.5615 50.6108C52.323 51.1744 51.9237 51.6554 51.4136 51.9936L44.7829 41.9918ZM41.504 45.949C40.8224 47.5721 40.642 49.362 40.986 51.0885L52.7546 48.7433C52.8786 49.3655 52.8136 50.0106 52.5679 50.5956L41.504 45.949ZM40.986 51.0885C41.3301 52.815 42.1829 54.3991 43.4347 55.6369L51.8721 47.104C52.3232 47.5501 52.6306 48.121 52.7546 48.7433L40.986 51.0885ZM43.4267 55.629L61.6939 73.7593L70.1472 65.2422L51.8801 47.1119L43.4267 55.629ZM61.702 73.7674C64.449 76.4834 68.1575 78.0046 72.0204 78L72.0061 66C71.3071 66.0008 70.6361 65.7256 70.139 65.2341L61.702 73.7674ZM72.0133 78H90.4357V66H72.0133V78ZM90.4357 78C118.72 78 140.052 48.0718 124.43 18.7852L113.842 24.4331C125.001 45.3525 110.088 66 90.4357 66V78Z" fill="white" mask="url(#path-1-outside-1_102_5)"/>
</svg>
