<svg width="53" height="140" viewBox="0 0 53 140" fill="none" xmlns="http://www.w3.org/2000/svg">
<g filter="url(#filter0_i_187_9819)">
<path fill-rule="evenodd" clip-rule="evenodd" d="M26 140C32.6274 140 38 134.627 38 128V23C38 21.3431 36.6569 20 35 20C33.3431 20 32 21.3431 32 23V128C32 131.314 29.3137 134 26 134C22.6863 134 20 131.314 20 128V98.5V19.5C20 12.0442 26.0442 6 33.5 6C40.9558 6 47 12.0442 47 19.5V43.5V60.5L53 64.5V43.5V19.5C53 8.73044 44.2696 0 33.5 0C22.7304 0 14 8.73044 14 19.5V98.5V128C14 134.627 19.3726 140 26 140ZM0 29.25V41.3125L6 45.3125V29.25C6 27.5931 4.65685 26.25 3 26.25C1.34315 26.25 0 27.5931 0 29.25Z" fill="#686868"/>
</g>
<defs>
<filter id="filter0_i_187_9819" x="0" y="0" width="53" height="142" filterUnits="userSpaceOnUse" color-interpolation-filters="sRGB">
<feFlood flood-opacity="0" result="BackgroundImageFix"/>
<feBlend mode="normal" in="SourceGraphic" in2="BackgroundImageFix" result="shape"/>
<feColorMatrix in="SourceAlpha" type="matrix" values="0 0 0 0 0 0 0 0 0 0 0 0 0 0 0 0 0 0 127 0" result="hardAlpha"/>
<feOffset dy="2"/>
<feGaussianBlur stdDeviation="2"/>
<feComposite in2="hardAlpha" operator="arithmetic" k2="-1" k3="1"/>
<feColorMatrix type="matrix" values="0 0 0 0 1 0 0 0 0 1 0 0 0 0 1 0 0 0 1 0"/>
<feBlend mode="normal" in2="shape" result="effect1_innerShadow_187_9819"/>
</filter>
</defs>
</svg>
