<svg width="777" height="496" viewBox="0 0 777 496" fill="none" xmlns="http://www.w3.org/2000/svg">
<g clip-path="url(#clip0_175_9767)">
<path d="M10 148C43.3333 121.333 76.6667 121.333 110 148C143.333 174.667 176.667 174.667 210 148C243.333 121.333 276.667 121.333 310 148C343.333 174.667 376.667 174.667 410 148C443.333 121.333 476.667 121.333 510 148C543.333 174.667 576.667 174.667 610 148C643.333 121.333 676.667 121.333 710 148C743.333 174.667 776.667 174.667 810 148C843.333 121.333 876.667 121.333 910 148C943.333 174.667 976.667 174.667 1010 148" stroke="#4C75F2" stroke-width="6"/>
<path d="M10 198C43.3333 171.333 76.6667 171.333 110 198C143.333 224.667 176.667 224.667 210 198C243.333 171.333 276.667 171.333 310 198C343.333 224.667 376.667 224.667 410 198C443.333 171.333 476.667 171.333 510 198C543.333 224.667 576.667 224.667 610 198C643.333 171.333 676.667 171.333 710 198C743.333 224.667 776.667 224.667 810 198C843.333 171.333 876.667 171.333 910 198C943.333 224.667 976.667 224.667 1010 198" stroke="#4C75F2" stroke-width="6"/>
<path d="M10 248C43.3333 221.333 76.6667 221.333 110 248C143.333 274.667 176.667 274.667 210 248C243.333 221.333 276.667 221.333 310 248C343.333 274.667 376.667 274.667 410 248C443.333 221.333 476.667 221.333 510 248C543.333 274.667 576.667 274.667 610 248C643.333 221.333 676.667 221.333 710 248C743.333 274.667 776.667 274.667 810 248C843.333 221.333 876.667 221.333 910 248C943.333 274.667 976.667 274.667 1010 248" stroke="#4C75F2" stroke-width="6"/>
<path d="M10 298C43.3333 271.333 76.6667 271.333 110 298C143.333 324.667 176.667 324.667 210 298C243.333 271.333 276.667 271.333 310 298C343.333 324.667 376.667 324.667 410 298C443.333 271.333 476.667 271.333 510 298C543.333 324.667 576.667 324.667 610 298C643.333 271.333 676.667 271.333 710 298C743.333 324.667 776.667 324.667 810 298C843.333 271.333 876.667 271.333 910 298C943.333 324.667 976.667 324.667 1010 298" stroke="#4C75F2" stroke-width="6"/>
<path d="M10 348C43.3333 321.333 76.6667 321.333 110 348C143.333 374.667 176.667 374.667 210 348C243.333 321.333 276.667 321.333 310 348C343.333 374.667 376.667 374.667 410 348C443.333 321.333 476.667 321.333 510 348C543.333 374.667 576.667 374.667 610 348C643.333 321.333 676.667 321.333 710 348C743.333 374.667 776.667 374.667 810 348C843.333 321.333 876.667 321.333 910 348C943.333 374.667 976.667 374.667 1010 348" stroke="#4C75F2" stroke-width="6"/>
</g>
<path d="M769 248C769 380.548 661.548 488 529 488C396.452 488 289 380.548 289 248C289 115.452 396.452 8 529 8C661.548 8 769 115.452 769 248Z" stroke="#4C75F2" stroke-width="16"/>
<path d="M386.217 153.582L356.637 130.018L364.599 120.024C366.448 117.703 368.378 116.14 370.389 115.334C372.398 114.511 374.395 114.307 376.378 114.722C378.361 115.137 380.224 116.038 381.966 117.427C383.709 118.815 385.009 120.433 385.867 122.281C386.732 124.119 387.002 126.112 386.675 128.26C386.339 130.401 385.255 132.622 383.422 134.923L377.715 142.087L374.537 139.556L380.152 132.507C381.418 130.919 382.16 129.424 382.378 128.024C382.596 126.624 382.411 125.335 381.822 124.158C381.231 122.963 380.343 121.894 379.159 120.951C377.975 120.007 376.739 119.385 375.452 119.084C374.173 118.773 372.881 118.893 371.577 119.444C370.263 119.987 368.966 121.062 367.685 122.67L362.668 128.968L389.071 150L386.217 153.582Z" fill="#4C75F2"/>
<path d="M420.484 92.1525C422.992 95.2541 424.599 98.3873 425.306 101.552C426.012 104.717 425.885 107.701 424.923 110.506C423.96 113.31 422.225 115.726 419.717 117.754C417.209 119.782 414.483 120.973 411.54 121.327C408.596 121.681 405.651 121.181 402.704 119.827C399.758 118.473 397.03 116.246 394.522 113.144C392.015 110.043 390.407 106.91 389.701 103.745C388.994 100.58 389.122 97.5954 390.084 94.791C391.046 91.9867 392.781 89.5705 395.289 87.5426C397.797 85.5146 400.523 84.3238 403.466 83.9701C406.41 83.6163 409.355 84.1163 412.302 85.4698C415.249 86.8234 417.976 89.0509 420.484 92.1525ZM417.038 94.9391C414.979 92.3927 412.815 90.588 410.546 89.5251C408.288 88.4544 406.072 88.0536 403.899 88.3225C401.735 88.5837 399.763 89.4342 397.982 90.8739C396.202 92.3136 394.953 94.0678 394.235 96.1364C393.526 98.1973 393.455 100.448 394.019 102.889C394.593 105.322 395.91 107.811 397.969 110.358C400.028 112.904 402.186 114.713 404.445 115.783C406.714 116.846 408.93 117.247 411.093 116.986C413.266 116.717 415.243 115.863 417.024 114.423C418.804 112.983 420.049 111.233 420.757 109.172C421.475 107.103 421.547 104.853 420.973 102.42C420.408 99.9789 419.097 97.4854 417.038 94.9391Z" fill="#4C75F2"/>
<path d="M446.486 66.9261C445.463 65.3436 444.016 64.4351 442.146 64.2006C440.276 63.966 438.313 64.3529 436.257 65.3612C434.754 66.0984 433.558 66.9866 432.669 68.0259C431.791 69.0597 431.246 70.1567 431.033 71.3167C430.832 72.4714 430.997 73.5903 431.528 74.6735C431.973 75.5798 432.57 76.2533 433.321 76.694C434.078 77.1182 434.904 77.3778 435.801 77.4728C436.692 77.5567 437.581 77.5525 438.469 77.4602C439.35 77.3569 440.147 77.2336 440.858 77.0904L444.762 76.3275C445.76 76.1259 446.901 75.964 448.185 75.8417C449.479 75.714 450.798 75.7599 452.139 75.9794C453.487 76.1824 454.755 76.6711 455.944 77.4455C457.132 78.2199 458.117 79.4029 458.898 80.9945C459.798 82.8293 460.13 84.723 459.895 86.6757C459.671 88.623 458.855 90.4832 457.449 92.2562C456.053 94.0238 454.051 95.5473 451.443 96.8266C449.011 98.0192 446.713 98.6595 444.549 98.7476C442.395 98.8301 440.466 98.419 438.761 97.514C437.067 96.6036 435.698 95.2524 434.654 93.4606L438.899 91.379C439.638 92.6069 440.589 93.4566 441.753 93.928C442.922 94.3829 444.187 94.5302 445.549 94.37C446.915 94.1933 448.273 93.7742 449.621 93.1129C451.191 92.3431 452.475 91.3977 453.475 90.2767C454.469 89.1447 455.106 87.9411 455.386 86.6659C455.66 85.3797 455.493 84.1176 454.886 82.8797C454.333 81.7523 453.568 80.9895 452.591 80.5911C451.614 80.1927 450.503 80.0245 449.259 80.0865C448.014 80.1486 446.713 80.3065 445.357 80.5604L440.594 81.4158C437.567 81.9542 434.933 81.8954 432.692 81.2396C430.45 80.5838 428.769 79.1119 427.647 76.8239C426.714 74.9229 426.415 73.0129 426.749 71.094C427.089 69.1586 427.939 67.3703 429.301 65.729C430.668 64.0713 432.435 62.7112 434.601 61.6487C436.789 60.5753 438.927 60.0136 441.014 59.9636C443.096 59.9024 444.965 60.3022 446.621 61.1627C448.288 62.0179 449.569 63.2885 450.465 64.9746L446.486 66.9261Z" fill="#4C75F2"/>
<path d="M461.486 54.3706L460.483 50.4338L487.969 43.4316L488.972 47.3683L477.448 50.3042L485.782 83.015L481.344 84.1456L473.01 51.4347L461.486 54.3706Z" fill="#4C75F2"/>
<path d="M557.565 60.2227C557.257 64.1995 556.273 67.5807 554.613 70.3664C552.953 73.152 550.811 75.2336 548.185 76.6111C545.56 77.9886 542.64 78.5531 539.424 78.3045C536.208 78.056 533.409 77.0494 531.026 75.2847C528.644 73.5201 526.847 71.134 525.635 68.1263C524.422 65.1186 523.97 61.6264 524.277 57.6496C524.585 53.6729 525.569 50.2916 527.229 47.506C528.888 44.7203 531.031 42.6388 533.656 41.2612C536.282 39.8837 539.202 39.3192 542.418 39.5678C545.634 39.8164 548.433 40.823 550.815 42.5876C553.198 44.3522 554.995 46.7384 556.207 49.7461C557.42 52.7537 557.872 56.2459 557.565 60.2227ZM553.146 59.8812C553.398 56.6163 553.065 53.8185 552.146 51.488C551.24 49.1583 549.904 47.345 548.14 46.048C546.388 44.7519 544.371 44.0156 542.088 43.8392C539.805 43.6627 537.692 44.0797 535.75 45.0902C533.819 46.1016 532.221 47.6882 530.955 49.8499C529.702 52.0125 528.948 54.7263 528.696 57.9912C528.444 61.2561 528.771 64.0533 529.677 66.383C530.596 68.7135 531.931 70.5269 533.683 71.8229C535.447 73.12 537.471 73.8567 539.754 74.0332C542.037 74.2097 544.144 73.7922 546.074 72.7807C548.016 71.7702 549.615 70.1837 550.868 68.021C552.134 65.8593 552.893 63.146 553.146 59.8812Z" fill="#4C75F2"/>
<path d="M564.841 80.6956L575.697 44.4691L597.419 50.9784L596.253 54.8699L578.918 49.6752L575.25 61.9158L590.957 66.6229L589.791 70.5144L574.083 65.8073L569.228 82.0102L564.841 80.6956Z" fill="#4C75F2"/>
<path d="M595.592 90.3707L613.12 56.8598L633.214 67.3698L631.331 70.9696L615.295 62.5821L609.373 73.9052L623.903 81.5052L622.02 85.105L607.49 77.505L599.65 92.4933L595.592 90.3707Z" fill="#4C75F2"/>
<path d="M650.99 79.1169L628.743 109.7L625.04 107.006L647.286 76.423L650.99 79.1169Z" fill="#4C75F2"/>
<path d="M677.783 119.025L674.568 115.763C675.317 114.645 675.808 113.495 676.043 112.313C676.287 111.14 676.312 109.974 676.121 108.814C675.946 107.655 675.576 106.543 675.009 105.477C674.442 104.41 673.718 103.43 672.837 102.536C671.229 100.905 669.361 99.8338 667.232 99.3221C665.112 98.8192 662.865 98.9683 660.491 99.7693C658.126 100.579 655.777 102.133 653.445 104.432C651.113 106.731 649.525 109.056 648.681 111.409C647.845 113.771 647.663 116.016 648.135 118.143C648.616 120.279 649.66 122.163 651.267 123.794C652.149 124.688 653.118 125.426 654.176 126.009C655.234 126.591 656.337 126.982 657.484 127.182C658.649 127.382 659.82 127.368 660.997 127.142C662.191 126.916 663.348 126.441 664.468 125.718L667.682 128.979C666.064 130.091 664.391 130.858 662.665 131.28C660.938 131.703 659.218 131.808 657.505 131.595C655.8 131.374 654.158 130.857 652.58 130.045C651.01 129.241 649.556 128.16 648.216 126.801C645.952 124.504 644.5 121.908 643.859 119.013C643.219 116.118 643.427 113.138 644.486 110.073C645.544 107.008 647.493 104.075 650.334 101.275C653.175 98.4757 656.136 96.569 659.216 95.5555C662.296 94.5419 665.279 94.3764 668.164 95.059C671.049 95.7416 673.624 97.2314 675.888 99.5286C677.227 100.888 678.287 102.358 679.068 103.939C679.857 105.529 680.346 107.182 680.534 108.899C680.73 110.606 680.604 112.32 680.157 114.041C679.718 115.752 678.926 117.414 677.783 119.025Z" fill="#4C75F2"/>
<path d="M665.788 145.234L697.77 125.05L709.951 144.351L706.516 146.519L696.779 131.091L685.972 137.911L695.079 152.34L691.643 154.508L682.537 140.079L671.668 146.938L681.563 162.617L678.128 164.785L665.788 145.234Z" fill="#4C75F2"/>
<defs>
<clipPath id="clip0_175_9767">
<rect width="393" height="260" fill="white" transform="translate(0 118)"/>
</clipPath>
</defs>
</svg>
