<svg width="1498" height="358" viewBox="0 0 1498 358" fill="none" xmlns="http://www.w3.org/2000/svg">
<path fill-rule="evenodd" clip-rule="evenodd" d="M323.781 11.8233C324.154 6.5973 323.887 4.47731 322.609 2.52731C320.88 -0.112687 319.065 -0.664701 317.444 0.956299C315.649 2.7513 301.518 8.11131 292.111 10.5653C270.355 16.2423 265.821 16.4093 186.5 14.4433C118.853 12.7673 113.795 12.7613 102.846 14.3403C75.338 18.3073 57.706 28.6373 49.373 45.6693C45.718 53.1413 44.858 66.5633 47.69 71.9253C50.639 77.5063 51.972 77.7353 57.677 73.6373C66.614 67.2163 79.702 62.6503 95.266 60.5243L100.032 59.8733L99.51 65.1863C99.222 68.1093 98.291 78.1503 97.44 87.5003C91.692 150.661 75.755 253.662 66.512 287.387C60.908 307.834 54.061 320.009 48.173 319.996C45.097 319.989 40.083 316.109 35.464 310.162C30.298 303.509 27.731 301.99 21.703 302.022C10.549 302.08 0 312.729 0 323.93C0 329.159 3.17399 337.338 7.46399 343.167C18.894 358.696 42.313 362.349 62.397 351.735C71.556 346.895 81.466 336.406 87.655 325C101.479 299.523 108.449 272.55 120.421 198.191C123.371 179.871 125.992 164.674 126.246 164.421C126.5 164.167 138.586 164.678 153.104 165.557C179.852 167.175 187.492 166.989 198.75 164.442C211.57 161.543 223.202 153.405 228.017 143.968C230.783 138.545 231.681 130.175 229.769 127.64C228.404 125.83 228.129 125.838 219.772 127.932C206.478 131.262 194.282 131.861 161.5 130.794C145 130.257 131.434 129.746 131.354 129.659C131.274 129.571 133.404 115.325 136.086 98.0003C138.769 80.6753 140.973 65.2893 140.982 63.8093C140.992 62.3293 141.337 60.9263 141.75 60.6903C142.163 60.4553 163.875 60.8813 190 61.6373C249.069 63.3463 261.799 62.6673 280 56.8333C305 48.8213 322.414 30.9183 323.781 11.8233ZM401.453 58.0793C400.573 53.1263 396.174 49.6143 386.44 46.0923C375.274 42.0523 371.146 42.0553 366.531 46.1073C363.887 48.4293 362.493 50.8923 361.016 55.8573C358.75 63.4743 352.246 96.0043 348.941 116.25L346.697 130H332.317C311.747 130 309.832 131.128 306.515 145.2C304.545 153.557 304.576 159.403 306.6 161.083C307.63 161.938 313.854 162.811 324.098 163.537C332.842 164.156 340.255 164.921 340.571 165.237C340.887 165.553 340.004 174.742 338.61 185.656C335.288 211.66 334.411 220.405 332.013 251.5C331.705 255.497 331.438 259.061 331.2 262.247L331.198 262.268C329.693 282.398 329.321 287.38 326.736 290.571C325.886 291.621 324.796 292.476 323.348 293.614C322.65 294.161 321.869 294.775 320.992 295.506C294.824 317.333 262.835 328.459 240.141 323.628C231.944 321.884 226.11 318.846 221.258 313.796L218.017 310.422L227.602 303.609C253.706 285.054 272.886 266.982 283.804 250.655C302.055 223.361 303.748 198.643 288.495 182.168C278.998 171.911 267.781 167.525 251.5 167.704C238.444 167.848 228.533 170.458 214.5 177.446C190.426 189.434 171.51 208.547 162.418 230.067C156.119 244.977 154.508 253.607 154.593 272C154.656 285.709 155.039 289.853 156.857 296.5C165.102 326.636 186.767 347.365 216.382 353.452C225.697 355.366 245.171 355.625 256 353.978C279.924 350.339 303.786 341.236 322.748 328.515L329.495 323.989L331.726 331.244C336.065 345.359 345.168 353.165 359.242 354.839C378.611 357.142 401.227 348.287 422.736 329.977L430.399 323.453L438.997 331.977C455.589 348.424 472.188 355.026 496.838 354.98C510.504 354.955 518.651 353.747 530.206 350.034C542.7 346.019 553.537 339.449 563.597 329.792L571.943 321.78L571.844 332.81C571.727 345.797 573.79 351.842 579.089 354.037C583.036 355.672 600.217 354.772 605.255 352.667C609.517 350.886 612.988 345.882 613.002 341.5C613.04 329.067 620.967 291.727 627.544 273C632.192 259.763 642.315 238.455 648.488 228.913C653.74 220.794 664.035 209.558 668.2 207.4C673.892 204.45 678.967 206.152 681.084 211.72C682.829 216.311 681.984 230.858 678.446 257.119C670.177 318.492 672.824 341.251 689.419 351.471C693.708 354.112 695.442 354.544 702.963 354.842C710.688 355.148 712.434 354.858 719.689 352.06C727.88 348.901 740.603 341.07 749.179 333.908C751.753 331.758 754.116 330 754.429 330C754.743 330 755.003 332.587 755.006 335.75C755.013 343.593 756.627 348.78 760.156 352.31L763.124 355.277L773.876 354.768C786.67 354.161 792.98 351.935 794.799 347.385C795.433 345.798 796.826 338.419 797.894 330.987C802.4 299.631 810.543 272.511 822.962 247.5C839.922 213.345 858.703 196.803 864.388 211.011C866.739 216.886 866.436 222.225 862.018 252.876C857.057 287.293 855.736 304.679 857.039 318.426C859.482 344.214 869.007 355.139 889 355.086C902.469 355.05 916.054 349.196 933.703 335.823L943.905 328.092L946.994 331.993C953.74 340.51 969.702 350.175 982.5 353.492C992.246 356.017 1007.73 355.597 1018.34 352.52C1023.21 351.109 1028.54 349.252 1030.2 348.394C1033.09 346.901 1033.5 346.97 1039.69 350.021C1048.44 354.326 1056.98 355.728 1065.18 354.205C1077.85 351.847 1088.48 344.658 1099.16 331.219C1102.46 327.063 1105.18 324.433 1105.41 325.179C1105.62 325.906 1106.34 328.584 1107 331.131C1109.94 342.542 1117.38 350.6 1127.74 353.613C1135.42 355.846 1148.31 355.584 1157.74 353.003C1166.54 350.595 1181.61 343.739 1188.44 339.041L1193.03 335.887L1197.26 339.276C1210.83 350.128 1227.22 355.087 1249.5 355.08C1283.14 355.07 1308.7 344.99 1333.23 322.062C1353.47 303.15 1371.96 275.248 1385.3 243.5C1388.31 236.35 1391.32 228.7 1392 226.5C1392.68 224.3 1393.6 222.114 1394.03 221.642C1395.32 220.23 1413.16 238.915 1417.28 246C1422.94 255.731 1424.52 261.822 1424.4 273.5C1424.32 281.375 1423.74 285.2 1421.68 291.5C1412.44 319.817 1392.42 331.405 1370.49 321.141C1361.41 316.891 1356.13 316.872 1352.59 321.077C1350.51 323.554 1350 325.204 1350 329.542C1350 334.165 1350.45 335.442 1353.16 338.533C1361.85 348.428 1389.65 356.084 1411.8 354.683C1424.77 353.862 1431.52 352.003 1443.85 345.847C1452.03 341.766 1455.99 338.994 1462.69 332.652C1475.62 320.412 1483.71 308.191 1491.33 289.412C1499.1 270.275 1499.55 265.391 1494.03 259.872C1490.39 256.234 1485.26 255.978 1481.58 259.25C1480.11 260.555 1477.6 265.318 1475.61 270.595C1473.73 275.598 1470.65 282.742 1468.77 286.471L1465.35 293.251L1464.19 285.077C1460.83 261.315 1449.75 244.774 1418.31 216.565L1403.12 202.94L1405.04 198.72C1407.18 194.011 1407.63 184.79 1405.94 180.315C1404.49 176.484 1400.31 172.244 1395.5 169.718C1389.8 166.725 1379.03 166.838 1372.59 169.959C1363.87 174.176 1359.95 184.669 1362.94 195.759C1364.06 199.919 1369.97 207.221 1373 208.193C1375.05 208.851 1373.7 212.55 1364.49 231.5C1337.98 286.062 1299.22 321.44 1263.45 323.74C1254.02 324.346 1247.01 322.674 1239.82 318.107C1231.35 312.723 1231.47 312.312 1244.26 302.697C1264.43 287.533 1284.17 269.269 1293.11 257.5C1299.88 248.598 1305.57 238.291 1308.64 229.399C1312.32 218.734 1312.57 203.425 1309.21 195C1304.44 183.059 1294.53 174.059 1281.5 169.838C1272.21 166.827 1257.07 166.847 1245.65 169.883C1217.27 177.429 1187.47 202.048 1175.94 227.478C1164.3 253.134 1163.31 285.547 1173.44 308.471C1174.85 311.649 1176 314.584 1176 314.994C1176 316.318 1163.66 321.134 1158.79 321.712C1154.45 322.226 1153.82 322.016 1151.16 319.17C1147.1 314.824 1145.92 309.621 1145.3 293.314C1144.48 272.135 1147.32 242.01 1155.12 188.948L1158.33 167.124L1164.91 166.485C1180.08 165.015 1191.13 160.761 1199.07 153.34C1207.14 145.793 1211.48 135.014 1209.04 128.592C1208.19 126.364 1207.5 125.886 1205.73 126.308C1194.59 128.974 1182.85 130.923 1174.6 131.477L1164.71 132.142L1165.34 126.821C1165.69 123.894 1168.49 108.225 1171.56 92.0003C1175.04 73.6793 1176.97 61.0493 1176.66 58.6723C1175.85 52.3863 1171.85 49.2963 1159.08 45.1043C1147.53 41.3143 1142.18 42.8063 1138.01 50.9783C1135.92 55.0693 1130.96 77.9433 1125.45 108.888C1123.55 119.552 1122 128.664 1122 129.138C1122 129.612 1115.69 130 1107.97 130C1087.52 130 1085.61 131.201 1082.49 146.026C1080.62 154.956 1080.6 159.423 1082.44 160.95C1083.93 162.191 1098.44 163.914 1108 163.988C1108.49 163.992 1108.95 163.991 1109.38 163.99C1111.7 163.984 1113.27 163.98 1114.23 164.74C1116.27 166.34 1115.64 171.319 1113.71 186.766C1113.53 188.144 1113.35 189.605 1113.16 191.155C1110.08 215.918 1105.57 267.259 1104.32 291.776L1103.69 304.051L1096.96 310.396C1089.01 317.9 1082.86 322.271 1075.72 325.497C1070.29 327.952 1058.36 330.689 1057.37 329.707C1057.06 329.396 1059.08 326.412 1061.86 323.075C1071.77 311.169 1080.18 293.414 1083.68 277C1086.41 264.245 1086.14 242.411 1083.1 230.5C1078.8 213.594 1069.07 196.573 1058.19 186.892C1035.96 167.123 1005.81 163.182 978.827 176.517C968.967 181.39 963.433 185.427 954.952 193.931C927.566 221.394 917.402 264.363 929.625 301L933.128 311.5L929.896 314.213C928.118 315.706 924.602 317.646 922.082 318.525C915.924 320.674 903.967 321.588 901.222 320.119C896.064 317.359 895.814 305.491 900.144 268.997C903.8 238.181 904.687 204.157 902.098 194C899.037 181.987 894.233 174.768 886.595 170.703C880.908 167.677 867.543 167.659 861 170.669C845.486 177.807 830.162 195.747 808.186 232.5L799.815 246.5L800.462 237.5C800.818 232.55 802.29 220.175 803.734 210C805.178 199.825 806.391 188.638 806.43 185.14C806.496 179.101 806.33 178.638 803.118 175.957C799.15 172.645 787.448 168.083 780.929 167.308C770.499 166.067 766.786 171.435 764.491 191.073C760.117 228.506 757.468 259.612 756.367 286.479L755.689 303.027L748.594 308.454C740.016 315.016 729.36 320.163 723.107 320.764C717.191 321.332 715.292 319.386 713.958 311.388C712.843 304.705 713.045 301.666 717.039 265C720.782 230.65 721.48 216.869 720.093 204.683C718.098 187.15 713.011 176.442 704.218 171.273C700.058 168.828 698.491 168.5 690.979 168.5C683.3 168.5 681.768 168.839 675.479 171.926C661.501 178.788 646.009 197.14 626.034 230.5C616.605 246.248 615.896 247.169 616.418 243C616.728 240.525 617.682 232.425 618.538 225C622.598 189.767 630.896 137.946 639.596 93.5003C645.497 63.3493 645.995 57.5203 642.997 53.7173C640.447 50.4833 633.792 46.9033 626.068 44.6123C615.126 41.3653 609.857 43.2553 606.209 51.7373C598.226 70.2923 578.465 205.417 574.434 269C573.882 277.71 573.271 280.53 570.849 285.543C564.802 298.058 553.488 309.15 541.134 314.677C524.083 322.305 499.159 321.811 481.585 313.497C467.26 306.72 459.076 297.524 453.594 282.044C450.827 274.23 450.567 272.389 450.547 260.5C450.524 246.774 451.674 240.561 456.408 228.842C460.498 218.715 465.199 211.803 474 202.97C485.115 191.815 497.44 185.631 501.629 189.107C503.02 190.261 503.165 191.85 502.607 199.786C501.577 214.443 503.91 219.894 513.236 224.62C527.068 231.629 542.711 226.466 549.464 212.664C558.488 194.218 548.163 175.168 526 169.376C517.786 167.229 501.992 167.276 492.658 169.475C473.135 174.073 454.592 184.279 440.187 198.355C428.156 210.111 419.896 224.222 414.347 242.5C411.832 250.785 411.61 252.891 411.557 269C411.506 284.797 411.728 287.181 413.847 293.5L416.194 300.5L410.847 305.289C399.458 315.488 387.93 321.978 381.173 321.994C378.054 322.002 373.475 317.25 371.949 312.421C371.234 310.161 370.524 300.662 370.272 290C369.711 266.227 373.119 231.849 381.087 180.89L383.242 167.114L388.871 166.505C413.209 163.872 429.277 153.165 432.848 137.199C433.815 132.876 432.75 126 431.113 126C430.677 126 426.873 126.881 422.661 127.959C414.16 130.133 391.047 132.467 389.902 131.267C389.5 130.845 392.071 114.975 395.616 96.0003C399.841 73.3873 401.852 60.3213 401.453 58.0793ZM1004.18 196.949C998.747 199.484 990.343 208.027 985.596 215.842C965.63 248.71 963.624 303.051 981.64 323.031C988.863 331.042 996.606 332.793 1005.83 328.501C1025.46 319.36 1041.02 283.172 1040.99 246.678C1040.98 223.92 1035.27 207.053 1024.71 198.617C1019.7 194.609 1010.76 193.883 1004.18 196.949ZM228.213 199.051C216.785 204.762 206.795 219.26 202.409 236.5C199.86 246.519 200.098 264.845 202.915 275.464C204.077 279.844 205.369 283.769 205.787 284.187C206.205 284.605 210.908 281.584 216.238 277.474C235.15 262.892 246.505 249.333 251.023 235.941C252.866 230.476 253.136 227.832 252.803 218.5C252.38 206.636 250.43 200.815 245.791 197.566C242.135 195.006 235.124 195.598 228.213 199.051ZM1241.3 198.587C1231.18 203.484 1221.47 217.357 1216.82 233.545C1214.9 240.25 1214.54 243.857 1214.55 256.5C1214.55 269.178 1214.91 272.777 1216.89 279.75C1218.17 284.288 1219.53 288 1219.91 288C1221.14 288 1233.33 277.931 1240.32 271.131C1258.63 253.328 1267.26 234.58 1265.7 215.993C1264.21 198.232 1255.25 191.838 1241.3 198.587Z" fill="#005CA3"/>
</svg>
