<svg width="1613" height="362" viewBox="0 0 1613 362" fill="none" xmlns="http://www.w3.org/2000/svg">
<path d="M1541.56 59.0669V25.6861H1554.08V15.709H1517.5V25.6861H1530.14V59.0669H1541.56ZM1601.59 32.6961V59.0669H1612.65V15.709H1597.34L1586.89 41.1294L1576.07 15.709H1560.52V59.0669H1571.57V33.0531L1582.51 59.0669H1590.77L1601.59 32.6961Z" fill="#FF0201"/>
<path d="M1426.49 361.27C1489.83 361.27 1548.29 313.517 1548.29 238.491C1548.29 164.432 1490.32 116.206 1426.01 116.206C1365.6 116.206 1303.23 165.41 1303.23 239.469C1303.23 316.45 1365.1 361.27 1426.49 361.27ZM1427.47 333.987C1395.8 333.987 1373.39 309.133 1368.52 273.565C1365.6 251.644 1365.6 219.493 1368.52 198.055C1373.39 162.003 1394.34 140.566 1425.03 140.566C1457.18 140.566 1479.61 165.894 1484.48 201.462C1487.4 223.383 1487.4 255.544 1484.48 276.982C1479.61 313.033 1458.16 333.987 1427.47 333.987Z" fill="#FF0100"/>
<path d="M1170.05 139.588C1197.82 139.588 1204.16 163.464 1202.69 183.441C1201.72 199.032 1207.56 210.724 1223.64 210.724L1259.21 151.763C1247.03 140.555 1220.23 117.173 1175.9 116.689C1109.14 116.205 1055.07 166.387 1055.07 244.336C1055.07 308.649 1100.87 360.776 1165.67 360.776C1220.72 360.776 1266.51 322.285 1282.1 269.18H1262.61C1262.61 269.18 1242.15 314.494 1187.1 314.494C1142.28 314.494 1110.12 278.433 1110.12 230.69C1110.12 177.101 1135.46 139.588 1170.05 139.588Z" fill="#FF0100"/>
<path d="M817.455 335.932V355.414H1024.03L1031.35 274.543H1016.24C1015.75 283.311 965.078 333.009 949.486 333.009H892.975L1031.35 122.051H829.64L826.717 190.748H841.815C841.815 181.496 878.844 141.05 887.613 141.05H949.002L817.455 335.932Z" fill="#FF0100"/>
<path d="M592.034 335.932V355.414H798.608L805.915 274.543H790.807C790.323 283.311 739.657 333.009 724.065 333.009H667.544L805.915 122.051H604.209L601.286 190.748H616.394C616.394 181.496 653.423 141.05 662.192 141.05H723.571L592.034 335.932Z" fill="#FF0100"/>
<path d="M475.806 314.495C478.245 339.833 498.221 360.776 525.504 360.293C548.403 359.809 578.125 324.231 585.916 314.979L573.247 301.826C567.885 306.694 556.204 318.395 550.842 318.395C544.512 318.395 533.295 307.178 533.295 300.848V122.051H430.008V139.105H446.094C452.423 139.105 470.454 159.564 470.454 166.388V275.52C455.346 295.98 425.14 318.395 410.032 318.395C392.001 318.395 382.749 302.803 382.749 284.773V122.051H287.263V139.105H296.031C302.361 139.105 319.908 159.564 319.908 166.388V292.08C319.908 324.725 345.729 360.776 381.781 360.776C410.042 360.776 449.994 333.009 474.838 304.749L475.806 314.495Z" fill="#FF0100"/>
<path d="M285.983 0.733398H0.481934V18.7642H8.75672C15.0861 18.7642 35.5561 39.2241 35.5561 47.9926V308.165C35.5561 315.956 15.5799 337.394 8.75672 337.394H0.481934V355.414H162.226V337.394H139.327C132.02 337.394 113.505 315.956 113.505 308.165V191.232H172.949C180.74 191.232 212.902 220.47 212.902 228.261V255.05H233.361V122.051H212.902V131.303C212.902 138.611 180.74 167.355 173.433 167.355H113.505V33.8622C113.505 30.9394 119.361 24.1161 122.284 24.1161H201.21C209.495 24.1161 267.952 92.329 267.952 102.075H285.983V0.733398Z" fill="#FF0100"/>
</svg>
