<svg width="166" height="114" viewBox="0 0 166 114" fill="none" xmlns="http://www.w3.org/2000/svg">
<mask id="path-1-outside-1_102_5" maskUnits="userSpaceOnUse" x="18" y="18" width="130" height="78" fill="black">
<rect fill="white" x="18" y="18" width="130" height="78"/>
<path d="M137.136 39.6202C131.93 29.9709 121.745 23.9632 110.669 24.0002H26.8639C26.2979 24.0025 25.7452 24.1713 25.2745 24.4855C24.8037 24.7997 24.4359 25.2455 24.2168 25.7674C24.0009 26.2858 23.9446 26.857 24.0553 27.4076C24.1659 27.9582 24.4384 28.4633 24.8379 28.8581L43.094 46.9737C44.7059 48.5782 46.9019 49.4766 49.1867 49.4766H108.266C112.477 49.4322 115.919 52.767 115.963 56.9187C116.007 61.0705 112.632 64.4718 108.421 64.5125H67.6905C67.1241 64.5127 66.5703 64.6797 66.0982 64.9927C65.6262 65.3057 65.2567 65.7507 65.036 66.2723C64.818 66.7914 64.7603 67.3638 64.8703 67.9159C64.9803 68.468 65.2531 68.9746 65.6534 69.3704L83.9205 87.5008C85.5426 89.1045 87.7323 90.0027 90.0133 90H108.436C132.404 90 150.527 64.7121 137.136 39.6091"/>
</mask>
<path d="M137.136 39.6202C131.93 29.9709 121.745 23.9632 110.669 24.0002H26.8639C26.2979 24.0025 25.7452 24.1713 25.2745 24.4855C24.8037 24.7997 24.4359 25.2455 24.2168 25.7674C24.0009 26.2858 23.9446 26.857 24.0553 27.4076C24.1659 27.9582 24.4384 28.4633 24.8379 28.8581L43.094 46.9737C44.7059 48.5782 46.9019 49.4766 49.1867 49.4766H108.266C112.477 49.4322 115.919 52.767 115.963 56.9187C116.007 61.0705 112.632 64.4718 108.421 64.5125H67.6905C67.1241 64.5127 66.5703 64.6797 66.0982 64.9927C65.6262 65.3057 65.2567 65.7507 65.036 66.2723C64.818 66.7914 64.7603 67.3638 64.8703 67.9159C64.9803 68.468 65.2531 68.9746 65.6534 69.3704L83.9205 87.5008C85.5426 89.1045 87.7323 90.0027 90.0133 90H108.436C132.404 90 150.527 64.7121 137.136 39.6091" fill="#FF3008"/>
<path d="M110.669 24.0002V30.0002H110.679L110.689 30.0001L110.669 24.0002ZM26.8639 24.0002V18.0002H26.8517L26.8395 18.0002L26.8639 24.0002ZM24.2168 25.7674L18.6847 23.4443L18.6813 23.4525L18.6779 23.4607L24.2168 25.7674ZM24.8379 28.8581L29.0641 24.5991L29.0557 24.5907L24.8379 28.8581ZM43.094 46.9737L47.3268 42.7213L47.3202 42.7147L43.094 46.9737ZM108.266 49.4766V55.4766H108.297L108.329 55.4762L108.266 49.4766ZM108.421 64.5125V70.5125H108.45L108.479 70.5122L108.421 64.5125ZM67.6905 64.5125L67.6905 58.5125L67.688 58.5125L67.6905 64.5125ZM65.036 66.2723L59.5104 63.9338L59.5072 63.9414L59.504 63.949L65.036 66.2723ZM65.6534 69.3704L69.8801 65.1119L69.8721 65.104L65.6534 69.3704ZM83.9205 87.5008L79.6939 91.7594L79.7021 91.7675L83.9205 87.5008ZM90.0133 90L90.0133 84L90.0061 84L90.0133 90ZM142.417 36.7715C136.146 25.1479 123.907 17.9559 110.649 18.0002L110.689 30.0001C119.583 29.9704 127.715 34.794 131.855 42.4689L142.417 36.7715ZM110.669 18.0002H26.8639V30.0002H110.669V18.0002ZM26.8395 18.0002C25.096 18.0073 23.3931 18.5273 21.943 19.4953L28.6059 29.4757C28.0972 29.8152 27.4998 29.9976 26.8882 30.0001L26.8395 18.0002ZM21.943 19.4953C20.493 20.4634 19.3598 21.8368 18.6847 23.4443L29.7488 28.0904C29.512 28.6543 29.1145 29.1361 28.6059 29.4757L21.943 19.4953ZM18.6779 23.4607C18.0027 25.0819 17.8269 26.8679 18.1729 28.5897L29.9377 26.2255C30.0624 26.8461 29.999 27.4897 29.7557 28.0741L18.6779 23.4607ZM18.1729 28.5897C18.5189 30.3115 19.371 31.8909 20.6201 33.1255L29.0557 24.5907C29.5059 25.0357 29.813 25.6049 29.9377 26.2255L18.1729 28.5897ZM20.6117 33.1171L38.8677 51.2327L47.3202 42.7147L29.0641 24.5991L20.6117 33.1171ZM38.8611 51.2261C41.6106 53.963 45.3341 55.4766 49.1867 55.4766V43.4766C48.4697 43.4766 47.8012 43.1934 47.3268 42.7213L38.8611 51.2261ZM49.1867 55.4766H108.266V43.4766H49.1867V55.4766ZM108.329 55.4762C109.294 55.4661 109.955 56.211 109.963 56.9829L121.963 56.8546C121.882 49.3229 115.659 43.3983 108.202 43.4769L108.329 55.4762ZM109.963 56.9829C109.971 57.7439 109.333 58.5034 108.363 58.5128L108.479 70.5122C115.93 70.4403 122.043 64.3971 121.963 56.8546L109.963 56.9829ZM108.421 58.5125H67.6905V70.5125H108.421V58.5125ZM67.688 58.5125C65.9432 58.5132 64.2372 59.0277 62.7829 59.9918L69.4136 69.9936C68.9034 70.3318 68.305 70.5122 67.6929 70.5125L67.688 58.5125ZM62.7829 59.9918C61.3286 60.956 60.1905 62.327 59.5104 63.9338L70.5615 68.6108C70.323 69.1744 69.9237 69.6554 69.4136 69.9936L62.7829 59.9918ZM59.504 63.949C58.8224 65.5721 58.642 67.362 58.986 69.0885L70.7546 66.7433C70.8786 67.3655 70.8136 68.0106 70.5679 68.5956L59.504 63.949ZM58.986 69.0885C59.3301 70.815 60.1829 72.3991 61.4347 73.6369L69.8721 65.104C70.3232 65.5501 70.6306 66.121 70.7546 66.7433L58.986 69.0885ZM61.4267 73.629L79.6939 91.7593L88.1472 83.2422L69.8801 65.1119L61.4267 73.629ZM79.7021 91.7675C82.449 94.4834 86.1575 96.0046 90.0204 96L90.0061 84C89.3071 84.0008 88.6361 83.7256 88.139 83.2341L79.7021 91.7675ZM90.0133 96H108.436V84H90.0133V96ZM108.436 96C136.72 96 158.052 66.0718 142.43 36.7852L131.842 42.4331C143.001 63.3525 128.088 84 108.436 84V96Z" fill="white" mask="url(#path-1-outside-1_102_5)"/>
</svg>
