<svg width="128" height="128" viewBox="0 0 128 128" fill="none" xmlns="http://www.w3.org/2000/svg">
<circle cx="64" cy="64" r="56" fill="url(#paint0_linear_1_2)"/>
<path d="M37.7266 77.4453C35.5 77.4453 34.1875 76.0859 34.1875 73.7656V46.4141C34.1875 44.0703 35.5 42.7109 37.7266 42.7109C39.9531 42.7109 41.2656 44.0703 41.2656 46.4141V58.1328H41.4766L54.2031 44.2344C55.1875 43.1562 56.0781 42.7109 57.25 42.7109C59.125 42.7109 60.5781 44.1406 60.5781 45.9688C60.5781 46.9531 60.2266 47.7266 59.3359 48.6641L50.0078 58.4375L60.1562 70.7656C61.2109 72.0781 61.6797 73.0859 61.6797 74.0469C61.6797 75.9688 60.2031 77.4688 58.2578 77.4688C56.8047 77.4688 55.8203 76.9297 54.7188 75.5234L44.6406 63.125L41.2656 66.6641V73.7656C41.2656 76.0859 39.9531 77.4453 37.7266 77.4453ZM79.75 77.5625C69.6484 77.5625 63.4609 70.9766 63.4609 59.9844C63.4609 49.1562 69.6484 42.5938 79.5859 42.5938C86.0781 42.5938 91.1641 45.6406 93.0625 49.7891C93.4609 50.6094 93.5781 51.2891 93.5781 51.9688C93.5781 53.7734 92.3359 55.0156 90.4844 55.0156C88.9844 55.0156 87.9297 54.3828 87.0625 52.9531C85.3984 49.9297 82.9375 48.4531 79.6094 48.4531C74.0312 48.4531 70.6797 52.6953 70.6797 59.8906C70.6797 67.2266 74.2422 71.7031 79.8672 71.7031C84.4844 71.7031 87.6953 68.8672 87.8359 64.6719L87.8594 64.1328H82.9375C81.25 64.1328 80.1016 63.1719 80.1016 61.5547C80.1016 59.9375 81.2266 58.9766 82.9375 58.9766H91.2109C93.4375 58.9766 94.75 60.3359 94.75 62.6562V63.1719C94.75 71.7734 89.2891 77.5625 79.75 77.5625Z" fill="white"/>
<path d="M31.375 85.7891H96.6016V90.2422H31.375V85.7891Z" fill="white"/>
<defs>
<linearGradient id="paint0_linear_1_2" x1="39.5" y1="8" x2="104" y2="120" gradientUnits="userSpaceOnUse">
<stop stop-color="#E1A4AC"/>
<stop offset="0.614583" stop-color="#C48CA8"/>
<stop offset="1" stop-color="#6E9FC2"/>
</linearGradient>
</defs>
</svg>
